<svg width="107" height="15" viewBox="0 0 107 15" fill="none" xmlns="http://www.w3.org/2000/svg">
<g clip-path="url(#clip0_16_2982)">
<path d="M14.9313 5.81177C14.8366 5.51897 14.5769 5.31101 14.2696 5.28332L10.096 4.90435L8.44568 1.04154C8.32399 0.758445 8.04686 0.575195 7.73894 0.575195C7.43102 0.575195 7.15389 0.758445 7.0322 1.0422L5.38185 4.90435L1.20759 5.28332C0.900882 5.31167 0.641839 5.51897 0.546629 5.81177C0.451418 6.10458 0.539347 6.42573 0.771361 6.62818L3.92611 9.39491L2.99585 13.4927C2.92777 13.794 3.04472 14.1055 3.29472 14.2862C3.42909 14.3833 3.5863 14.4327 3.74484 14.4327C3.88153 14.4327 4.01712 14.3958 4.13881 14.323L7.73894 12.1714L11.3377 14.323C11.6011 14.4814 11.9331 14.467 12.1825 14.2862C12.4326 14.1049 12.5494 13.7934 12.4814 13.4927L11.5511 9.39491L14.7059 6.62873C14.9379 6.42573 15.0265 6.10513 14.9313 5.81177Z" fill="#FFC107"/>
</g>
<g clip-path="url(#clip1_16_2982)">
<path d="M37.7633 5.81177C37.6686 5.51897 37.4089 5.31101 37.1017 5.28332L32.9281 4.90435L31.2777 1.04154C31.156 0.758445 30.8789 0.575195 30.571 0.575195C30.2631 0.575195 29.9859 0.758445 29.8642 1.0422L28.2139 4.90435L24.0396 5.28332C23.7329 5.31167 23.4739 5.51897 23.3787 5.81177C23.2834 6.10458 23.3714 6.42573 23.6034 6.62818L26.7581 9.39491L25.8279 13.4927C25.7598 13.794 25.8768 14.1055 26.1267 14.2862C26.2611 14.3833 26.4183 14.4327 26.5769 14.4327C26.7136 14.4327 26.8492 14.3958 26.9708 14.323L30.571 12.1714L34.1698 14.323C34.4331 14.4814 34.7651 14.467 35.0145 14.2862C35.2646 14.1049 35.3815 13.7934 35.3134 13.4927L34.3831 9.39491L37.5379 6.62873C37.7699 6.42573 37.8585 6.10513 37.7633 5.81177Z" fill="#FFC107"/>
</g>
<g clip-path="url(#clip2_16_2982)">
<path d="M60.5953 5.81177C60.5007 5.51897 60.2409 5.31101 59.9337 5.28332L55.7601 4.90435L54.1097 1.04154C53.9881 0.758445 53.7109 0.575195 53.403 0.575195C53.0951 0.575195 52.8179 0.758445 52.6963 1.0422L51.0459 4.90435L46.8716 5.28332C46.5649 5.31167 46.3059 5.51897 46.2107 5.81177C46.1155 6.10458 46.2034 6.42573 46.4354 6.62818L49.5902 9.39491L48.6599 13.4927C48.5918 13.794 48.7088 14.1055 48.9588 14.2862C49.0932 14.3833 49.2504 14.4327 49.4089 14.4327C49.5456 14.4327 49.6812 14.3958 49.8029 14.323L53.403 12.1714L57.0018 14.323C57.2652 14.4814 57.5971 14.467 57.8466 14.2862C58.0967 14.1049 58.2135 13.7934 58.1454 13.4927L57.2152 9.39491L60.3699 6.62873C60.6019 6.42573 60.6905 6.10513 60.5953 5.81177Z" fill="#FFC107"/>
</g>
<g clip-path="url(#clip3_16_2982)">
<path d="M83.4264 5.81177C83.3317 5.51897 83.072 5.31101 82.7647 5.28332L78.5912 4.90435L76.9408 1.04154C76.8191 0.758445 76.542 0.575195 76.2341 0.575195C75.9261 0.575195 75.649 0.758445 75.5273 1.0422L73.877 4.90435L69.7027 5.28332C69.396 5.31167 69.137 5.51897 69.0417 5.81177C68.9465 6.10458 69.0345 6.42573 69.2665 6.62818L72.4212 9.39491L71.491 13.4927C71.4229 13.794 71.5398 14.1055 71.7898 14.2862C71.9242 14.3833 72.0814 14.4327 72.24 14.4327C72.3767 14.4327 72.5122 14.3958 72.6339 14.323L76.2341 12.1714L79.8329 14.323C80.0962 14.4814 80.4282 14.467 80.6776 14.2862C80.9277 14.1049 81.0446 13.7934 80.9765 13.4927L80.0462 9.39491L83.201 6.62873C83.433 6.42573 83.5216 6.10513 83.4264 5.81177Z" fill="#FFC107"/>
</g>
<g clip-path="url(#clip4_16_2982)">
<path d="M106.258 5.81177C106.164 5.51897 105.904 5.31101 105.597 5.28332L101.423 4.90435L99.7728 1.04154C99.6511 0.758445 99.374 0.575195 99.0661 0.575195C98.7582 0.575195 98.481 0.758445 98.3593 1.0422L96.709 4.90435L92.5347 5.28332C92.228 5.31167 91.969 5.51897 91.8738 5.81177C91.7786 6.10458 91.8665 6.42573 92.0985 6.62818L95.2533 9.39491L94.323 13.4927C94.2549 13.794 94.3719 14.1055 94.6219 14.2862C94.7562 14.3833 94.9135 14.4327 95.072 14.4327C95.2087 14.4327 95.3443 14.3958 95.466 14.323L99.0661 12.1714L102.665 14.323C102.928 14.4814 103.26 14.467 103.51 14.2862C103.76 14.1049 103.877 13.7934 103.809 13.4927L102.878 9.39491L106.033 6.62873C106.265 6.42573 106.354 6.10513 106.258 5.81177Z" fill="#FFC107"/>
</g>
<defs>
<clipPath id="clip0_16_2982">
<rect width="14.4602" height="14.4602" fill="white" transform="translate(0.508789 0.264648)"/>
</clipPath>
<clipPath id="clip1_16_2982">
<rect width="14.4602" height="14.4602" fill="white" transform="translate(23.3408 0.264648)"/>
</clipPath>
<clipPath id="clip2_16_2982">
<rect width="14.4602" height="14.4602" fill="white" transform="translate(46.1729 0.264648)"/>
</clipPath>
<clipPath id="clip3_16_2982">
<rect width="14.4602" height="14.4602" fill="white" transform="translate(69.0039 0.264648)"/>
</clipPath>
<clipPath id="clip4_16_2982">
<rect width="14.4602" height="14.4602" fill="white" transform="translate(91.8359 0.264648)"/>
</clipPath>
</defs>
</svg>
