<svg width="301" height="195" viewBox="0 0 301 195" fill="none" xmlns="http://www.w3.org/2000/svg">
<rect width="301" height="195" rx="14" fill="#0C2E73"/>
<g clip-path="url(#clip0_74_574)">
<mask id="mask0_74_574" style="mask-type:luminance" maskUnits="userSpaceOnUse" x="11" y="25" width="120" height="120">
<path d="M130.87 41.9902L28.2773 25.7123L11.9994 128.305L114.592 144.583L130.87 41.9902Z" fill="white"/>
</mask>
<g mask="url(#mask0_74_574)">
<path fill-rule="evenodd" clip-rule="evenodd" d="M76.8352 51.1098C73.1284 50.5216 69.6468 53.0497 69.0586 56.7565L51.8001 54.0182C53.9005 40.7798 66.3351 31.7508 79.5735 33.8512C92.812 35.9517 101.841 48.3863 99.7404 61.6247C97.64 74.863 85.2055 83.892 71.967 81.7915L74.7053 64.5331C78.412 65.1212 81.8937 62.593 82.4818 58.8863C83.07 55.1796 80.5418 51.6979 76.8352 51.1098ZM105.472 90.548C106.06 86.8412 103.532 83.3596 99.8254 82.7715L102.564 65.5129C115.802 67.6134 124.831 80.048 122.731 93.2863C120.63 106.525 108.196 115.554 94.9573 113.453C81.7188 111.353 72.6898 98.9184 74.7903 85.6798L92.0489 88.4182C91.4608 92.1249 93.989 95.6066 97.6956 96.1947C101.402 96.7828 104.884 94.2547 105.472 90.548ZM43.0437 87.5233C39.3369 86.9351 36.8088 83.4534 37.3969 79.7468C37.9851 76.04 41.4667 73.5119 45.1735 74.1001C48.8802 74.6882 51.4084 78.1698 50.8202 81.8766L68.0787 84.6149C70.1792 71.3766 61.1502 58.942 47.9118 56.8415C34.6735 54.741 22.2389 63.7701 20.1384 77.0084C18.0379 90.247 27.067 102.681 40.3053 104.782L43.0437 87.5233ZM66.034 119.185C69.7406 119.773 73.2223 117.245 73.8104 113.538L91.069 116.277C88.9685 129.515 76.5341 138.544 63.2956 136.444C50.0572 134.343 41.0282 121.909 43.1287 108.67C45.2292 95.4316 57.6637 86.4027 70.9021 88.5032L68.1638 105.762C64.457 105.174 60.9753 107.702 60.3872 111.408C59.7991 115.115 62.3272 118.597 66.034 119.185Z" fill="url(#paint0_linear_74_574)"/>
</g>
</g>
<path fill-rule="evenodd" clip-rule="evenodd" d="M193.062 106.24C193.975 104.125 194.482 101.792 194.482 99.3392C194.482 89.763 186.76 82 177.235 82C167.711 82 159.989 89.763 159.989 99.3392C159.989 101.792 160.496 104.125 161.409 106.24C158.274 101.901 153.188 99.0804 147.446 99.0804C137.922 99.0804 130.2 106.843 130.2 116.42C130.2 124.972 136.359 132.079 144.461 133.5C136.359 134.921 130.2 142.028 130.2 150.58C130.2 160.156 137.922 167.92 147.446 167.92C153.188 167.92 158.274 165.099 161.409 160.76C160.496 162.875 159.989 165.209 159.989 167.661C159.989 177.237 167.711 185 177.235 185C186.76 185 194.482 177.237 194.482 167.661C194.482 165.209 193.975 162.875 193.062 160.76C196.197 165.099 201.283 167.92 207.024 167.92C216.549 167.92 224.271 160.156 224.271 150.58C224.271 142.028 218.111 134.921 210.009 133.5C218.111 132.079 224.271 124.972 224.271 116.42C224.271 106.843 216.549 99.0804 207.024 99.0804C201.283 99.0804 196.197 101.901 193.062 106.24ZM191.198 157.481C190.285 155.366 189.778 153.033 189.778 150.58C189.778 142.028 195.937 134.921 204.039 133.5C195.937 132.079 189.778 124.972 189.778 116.42C189.778 113.967 190.285 111.634 191.198 109.519C188.063 113.858 182.977 116.678 177.235 116.678C171.494 116.678 166.408 113.858 163.273 109.519C164.186 111.634 164.693 113.967 164.693 116.42C164.693 124.972 158.534 132.079 150.432 133.5C158.534 134.921 164.693 142.028 164.693 150.58C164.693 153.033 164.186 155.366 163.273 157.481C166.408 153.143 171.494 150.321 177.235 150.321C182.977 150.321 188.063 153.143 191.198 157.481Z" fill="url(#paint1_linear_74_574)"/>
<g clip-path="url(#clip1_74_574)">
<mask id="mask1_74_574" style="mask-type:luminance" maskUnits="userSpaceOnUse" x="234" y="21" width="84" height="84">
<path d="M317.23 21H234V105H317.23V21Z" fill="white"/>
</mask>
<g mask="url(#mask1_74_574)">
<path fill-rule="evenodd" clip-rule="evenodd" d="M234 41.58H245.444H245.652V41.5776C250.497 41.466 254.391 37.4669 254.391 32.55V21H256.888V32.76C256.888 37.6312 260.801 41.58 265.627 41.58C270.454 41.58 274.366 37.6312 274.366 32.76V21H276.863V32.76C276.863 37.6312 280.776 41.58 285.602 41.58C290.429 41.58 294.342 37.6312 294.342 32.76V21H297.255V32.76C297.255 37.6312 301.167 41.58 305.994 41.58H317.23V44.1H305.578C300.751 44.1 296.839 48.0488 296.839 52.92C296.839 57.7912 300.751 61.74 305.578 61.74H317.23V64.26H305.578C300.751 64.26 296.839 68.2088 296.839 73.08C296.839 77.9512 300.751 81.9 305.578 81.9H317.23V84.42H305.994C301.167 84.42 297.255 88.3688 297.255 93.24V93.66V105H294.342V93.24C294.342 88.3688 290.429 84.42 285.602 84.42C280.776 84.42 276.863 88.3688 276.863 93.24V105H274.366V93.24C274.366 88.3688 270.454 84.42 265.627 84.42C260.801 84.42 256.888 88.3688 256.888 93.24V105H254.391V93.45C254.391 88.5331 250.497 84.5338 245.652 84.4225V84.42H245.444H234V81.9H245.652C250.479 81.9 254.391 77.9512 254.391 73.08C254.391 68.2088 250.479 64.26 245.652 64.26H234V61.74H245.652C250.479 61.74 254.391 57.7912 254.391 52.92C254.391 48.0488 250.479 44.1 245.652 44.1H234V41.58ZM265.627 61.74C270.454 61.74 274.366 57.7912 274.366 52.92C274.366 48.0488 270.454 44.1 265.627 44.1C260.801 44.1 256.888 48.0488 256.888 52.92C256.888 57.7912 260.801 61.74 265.627 61.74ZM285.602 61.74C290.429 61.74 294.342 57.7912 294.342 52.92C294.342 48.0488 290.429 44.1 285.602 44.1C280.776 44.1 276.863 48.0488 276.863 52.92C276.863 57.7912 280.776 61.74 285.602 61.74ZM274.366 73.08C274.366 77.9512 270.454 81.9 265.627 81.9C260.801 81.9 256.888 77.9512 256.888 73.08C256.888 68.2088 260.801 64.26 265.627 64.26C270.454 64.26 274.366 68.2088 274.366 73.08ZM285.602 81.9C290.429 81.9 294.342 77.9512 294.342 73.08C294.342 68.2088 290.429 64.26 285.602 64.26C280.776 64.26 276.863 68.2088 276.863 73.08C276.863 77.9512 280.776 81.9 285.602 81.9Z" fill="url(#paint2_linear_74_574)"/>
</g>
</g>
<g clip-path="url(#clip2_74_574)">
<mask id="mask2_74_574" style="mask-type:luminance" maskUnits="userSpaceOnUse" x="12" y="152" width="80" height="79">
<path d="M92 152H12V230.899H92V152Z" fill="white"/>
</mask>
<g mask="url(#mask2_74_574)">
<path fill-rule="evenodd" clip-rule="evenodd" d="M52 230.899C74.0912 230.899 92 213.237 92 191.45C92 169.662 74.0912 152 52 152C29.9086 152 12 169.662 12 191.45C12 213.237 29.9086 230.899 52 230.899ZM52 226.165C71.4404 226.165 87.2 210.622 87.2 191.45C87.2 172.277 71.4404 156.734 52 156.734C32.5596 156.734 16.8 172.277 16.8 191.45C16.8 210.622 32.5596 226.165 52 226.165ZM52 221.431C68.7896 221.431 82.4 208.008 82.4 191.45C82.4 174.891 68.7896 161.468 52 161.468C35.2106 161.468 21.6 174.891 21.6 191.45C21.6 208.008 35.2106 221.431 52 221.431ZM52 216.697C66.1384 216.697 77.6 205.393 77.6 191.45C77.6 177.506 66.1384 166.202 52 166.202C37.8615 166.202 26.4 177.506 26.4 191.45C26.4 205.393 37.8615 216.697 52 216.697ZM72.8 191.45C72.8 202.779 63.4876 211.963 52 211.963C40.5125 211.963 31.2 202.779 31.2 191.45C31.2 180.12 40.5125 170.936 52 170.936C63.4876 170.936 72.8 180.12 72.8 191.45ZM68 191.45C68 200.164 60.8364 207.229 52 207.229C43.1634 207.229 36 200.164 36 191.45C36 182.735 43.1634 175.67 52 175.67C60.8364 175.67 68 182.735 68 191.45Z" fill="url(#paint3_linear_74_574)"/>
</g>
</g>
<defs>
<linearGradient id="paint0_linear_74_574" x1="79.5735" y1="33.8512" x2="63.2956" y2="136.444" gradientUnits="userSpaceOnUse">
<stop stop-color="#B8DBFC"/>
<stop offset="1" stop-color="#F8FBFE"/>
</linearGradient>
<linearGradient id="paint1_linear_74_574" x1="213.452" y1="82" x2="142.266" y2="154.107" gradientUnits="userSpaceOnUse">
<stop stop-color="#B0B9FF"/>
<stop offset="1" stop-color="#E7E9FF"/>
</linearGradient>
<linearGradient id="paint2_linear_74_574" x1="242.531" y1="27.72" x2="276.132" y2="104.775" gradientUnits="userSpaceOnUse">
<stop stop-color="#ACAAFF"/>
<stop offset="1" stop-color="#C0E8FF"/>
</linearGradient>
<linearGradient id="paint3_linear_74_574" x1="23" y1="159.495" x2="70.7665" y2="221.482" gradientUnits="userSpaceOnUse">
<stop stop-color="#FFD9A0"/>
<stop offset="1" stop-color="#FFF5F1"/>
</linearGradient>
<clipPath id="clip0_74_574">
<rect width="103.876" height="103.876" fill="white" transform="translate(28.2773 25.7123) rotate(9.01573)"/>
</clipPath>
<clipPath id="clip1_74_574">
<rect width="67" height="84" fill="white" transform="translate(234 21)"/>
</clipPath>
<clipPath id="clip2_74_574">
<rect width="80" height="43" fill="white" transform="translate(12 152)"/>
</clipPath>
</defs>
</svg>
