<svg width="269" height="152" viewBox="0 0 269 152" fill="none" xmlns="http://www.w3.org/2000/svg">
<path fill-rule="evenodd" clip-rule="evenodd" d="M0 9C0 4.02944 4.02944 0 9 0H207C211.971 0 216 4.02944 216 9V48C216 52.9706 220.029 57 225 57H260C264.971 57 269 61.0294 269 66V101C269 105.971 264.971 110 260 110H195C190.029 110 186 114.029 186 119V143C186 147.971 181.971 152 177 152H20C15.0294 152 11 147.971 11 143V108C11 103.029 15.0294 99 20 99H65C69.9706 99 74 94.9706 74 90V77C74 72.0294 69.9706 68 65 68H9C4.02944 68 0 63.9706 0 59V9Z" fill="white"/>
<rect x="90" y="19" width="113" height="30" rx="3" fill="#0C2E73"/>
<path d="M102.75 92H99V75.25H107.75C111.625 75.25 114.125 77.45 114.125 81.3C114.125 85.15 111.625 87.375 107.75 87.375H102.75V92ZM107.35 78.625H102.75V84H107.35C109.425 84 110.4 83.4 110.4 81.3C110.4 79.25 109.425 78.625 107.35 78.625ZM118.705 92H114.955V75.25H124.205C128.33 75.25 130.68 77.075 130.68 80.275C130.68 83 129.105 84.625 125.955 84.925V85.125C127.455 85.525 128.03 86.325 128.655 87.5L131.08 92H126.73L124.43 87.65C123.755 86.35 123.13 85.925 121.18 85.925H118.705V92ZM118.705 78.625V83.1H124.18C125.955 83.1 126.755 82.6 126.755 80.85C126.755 79.2 125.955 78.625 124.18 78.625H118.705ZM145.94 92H131.765V75.25H145.94V78.625H135.515V81.9H145.565V85.25H135.515V88.625H145.94V92ZM154.734 92.25C149.659 92.25 146.809 90.25 146.809 86.35V86.2H150.559V86.65C150.559 88.2 151.334 88.825 154.734 88.825C157.734 88.825 158.434 88.375 158.434 87.25C158.434 86.225 157.859 85.85 156.134 85.55L151.434 84.875C148.434 84.4 146.659 82.9 146.659 80.175C146.659 77.65 148.709 75 154.334 75C159.484 75 161.884 77.375 161.884 80.9V81.05H158.109V80.7C158.109 79.1 157.284 78.425 153.959 78.425C151.259 78.425 150.434 78.95 150.434 80.025C150.434 81 150.984 81.35 152.384 81.6L157.084 82.35C160.834 82.95 162.184 84.775 162.184 87.075C162.184 89.8 160.059 92.25 154.734 92.25ZM177.386 92H163.211V75.25H177.386V78.625H166.961V81.9H177.011V85.25H166.961V88.625H177.386V92ZM182.33 92H178.58V75.25H182.58L188.58 83.175L190.88 86.7H191.155L190.98 83.325V75.25H194.73V92H190.73L184.555 84L182.43 80.85H182.18L182.33 83.925V92ZM204.795 92.25C199.27 92.25 195.845 88.85 195.845 83.625C195.845 78.4 199.27 75 204.795 75C209.995 75 213.345 77.6 213.345 81.85V82.225H209.17V81.85C209.17 79.65 207.92 78.6 204.87 78.6C201.195 78.6 199.82 79.9 199.82 83.625C199.82 87.35 201.195 88.65 204.87 88.65C207.92 88.65 209.17 87.6 209.17 85.4V85.025H213.345V85.4C213.345 89.65 210.02 92.25 204.795 92.25ZM228.645 92H214.47V75.25H228.645V78.625H218.22V81.9H228.27V85.25H218.22V88.625H228.645V92ZM236.946 92H233.196V75.25H236.946V92ZM246.009 92.25C240.934 92.25 238.084 90.25 238.084 86.35V86.2H241.834V86.65C241.834 88.2 242.609 88.825 246.009 88.825C249.009 88.825 249.709 88.375 249.709 87.25C249.709 86.225 249.134 85.85 247.409 85.55L242.709 84.875C239.709 84.4 237.934 82.9 237.934 80.175C237.934 77.65 239.984 75 245.609 75C250.759 75 253.159 77.375 253.159 80.9V81.05H249.384V80.7C249.384 79.1 248.559 78.425 245.234 78.425C242.534 78.425 241.709 78.95 241.709 80.025C241.709 81 242.259 81.35 243.659 81.6L248.359 82.35C252.109 82.95 253.459 84.775 253.459 87.075C253.459 89.8 251.334 92.25 246.009 92.25Z" fill="black"/>
<path d="M23.362 42H19.436V36.228L11.714 24.58H16.524L19.852 29.676L21.308 32.016H21.594L23.05 29.676L26.378 24.58H31.214L23.362 36.254V42ZM40.406 42.26C34.634 42.26 31.046 38.724 31.046 33.29C31.046 27.856 34.634 24.32 40.406 24.32C46.308 24.32 49.87 27.856 49.87 33.29C49.87 38.724 46.308 42.26 40.406 42.26ZM40.406 38.516C44.228 38.516 45.71 37.164 45.71 33.29C45.71 29.416 44.228 28.064 40.406 28.064C36.584 28.064 35.18 29.416 35.18 33.29C35.18 37.164 36.584 38.516 40.406 38.516ZM59.4748 42.26C53.8068 42.26 50.9208 39.4 50.9208 34.72V24.58H54.8208V34.434C54.8208 37.398 55.9388 38.464 59.4748 38.464C63.0368 38.464 64.1288 37.398 64.1288 34.434V24.58H68.0288V34.72C68.0288 39.4 65.1688 42.26 59.4748 42.26ZM73.3722 42H69.4722V24.58H79.0922C83.3822 24.58 85.8262 26.478 85.8262 29.806C85.8262 32.64 84.1882 34.33 80.9122 34.642V34.85C82.4722 35.266 83.0702 36.098 83.7202 37.32L86.2422 42H81.7182L79.3262 37.476C78.6242 36.124 77.9742 35.682 75.9462 35.682H73.3722V42ZM73.3722 28.09V32.744H79.0662C80.9122 32.744 81.7442 32.224 81.7442 30.404C81.7442 28.688 80.9122 28.09 79.0662 28.09H73.3722Z" fill="black"/>
<path d="M106.035 42H97.6373V24.58H106.035C111.625 24.58 115.161 27.83 115.161 33.29C115.161 38.75 111.625 42 106.035 42ZM106.035 28.09H101.537V38.49H106.035C109.571 38.49 111.001 37.476 111.001 33.29C111.001 29.104 109.571 28.09 106.035 28.09ZM120.233 42H116.333V24.58H120.233V42ZM129.971 42.26C124.641 42.26 121.365 38.724 121.365 33.29C121.365 27.856 125.057 24.32 131.037 24.32C136.497 24.32 139.955 26.868 139.955 31.054V31.262H135.613V31.054C135.613 29.026 134.287 28.064 130.933 28.064C126.981 28.064 125.499 29.416 125.499 33.29C125.499 37.164 126.929 38.516 130.751 38.516C134.755 38.516 135.977 37.892 136.081 35.682H130.179V32.796H139.981V42H136.367V38.256H136.159C135.561 40.544 133.741 42.26 129.971 42.26ZM145.269 42H141.369V24.58H145.269V42ZM156.489 42H152.589V28.09H146.115V24.58H162.963V28.09H156.489V42ZM167.039 42H162.671L170.289 24.58H175.853L183.523 42H179.051L177.413 38.152H168.703L167.039 42ZM171.849 30.846L170.211 34.642H175.905L174.267 30.846L173.201 28.142H172.915L171.849 30.846ZM198.187 42H183.913V24.58H187.813V38.49H198.187V42Z" fill="white"/>
<path d="M27.855 134.23C22.749 134.23 19.575 131.102 19.575 126.295C19.575 121.488 22.749 118.36 27.855 118.36C33.076 118.36 36.227 121.488 36.227 126.295C36.227 131.102 33.076 134.23 27.855 134.23ZM27.855 130.918C31.236 130.918 32.547 129.722 32.547 126.295C32.547 122.868 31.236 121.672 27.855 121.672C24.474 121.672 23.232 122.868 23.232 126.295C23.232 129.722 24.474 130.918 27.855 130.918ZM44.7235 134.23C39.7095 134.23 37.1565 131.7 37.1565 127.56V118.59H40.6065V127.307C40.6065 129.929 41.5955 130.872 44.7235 130.872C47.8745 130.872 48.8405 129.929 48.8405 127.307V118.59H52.2905V127.56C52.2905 131.7 49.7605 134.23 44.7235 134.23ZM57.0174 134H53.5674V118.59H62.0774C65.8724 118.59 68.0344 120.269 68.0344 123.213C68.0344 125.72 66.5854 127.215 63.6874 127.491V127.675C65.0674 128.043 65.5964 128.779 66.1714 129.86L68.4024 134H64.4004L62.2844 129.998C61.6634 128.802 61.0884 128.411 59.2944 128.411H57.0174V134ZM57.0174 121.695V125.812H62.0544C63.6874 125.812 64.4234 125.352 64.4234 123.742C64.4234 122.224 63.6874 121.695 62.0544 121.695H57.0174ZM75.571 134H72.121V118.59H80.171C83.736 118.59 86.036 120.614 86.036 124.156C86.036 127.698 83.736 129.745 80.171 129.745H75.571V134ZM79.803 121.695H75.571V126.64H79.803C81.712 126.64 82.609 126.088 82.609 124.156C82.609 122.27 81.712 121.695 79.803 121.695ZM90.2497 134H86.7997V118.59H95.3097C99.1047 118.59 101.267 120.269 101.267 123.213C101.267 125.72 99.8177 127.215 96.9197 127.491V127.675C98.2997 128.043 98.8287 128.779 99.4037 129.86L101.635 134H97.6327L95.5167 129.998C94.8957 128.802 94.3207 128.411 92.5267 128.411H90.2497V134ZM90.2497 121.695V125.812H95.2867C96.9197 125.812 97.6557 125.352 97.6557 123.742C97.6557 122.224 96.9197 121.695 95.2867 121.695H90.2497ZM105.714 134H102.264V118.59H105.714V134ZM114.995 134.23C109.889 134.23 106.715 131.102 106.715 126.295C106.715 121.488 109.889 118.36 114.995 118.36C120.216 118.36 123.367 121.488 123.367 126.295C123.367 131.102 120.216 134.23 114.995 134.23ZM114.995 130.918C118.376 130.918 119.687 129.722 119.687 126.295C119.687 122.868 118.376 121.672 114.995 121.672C111.614 121.672 110.372 122.868 110.372 126.295C110.372 129.722 111.614 130.918 114.995 130.918ZM127.862 134H124.412V118.59H132.922C136.717 118.59 138.879 120.269 138.879 123.213C138.879 125.72 137.43 127.215 134.532 127.491V127.675C135.912 128.043 136.441 128.779 137.016 129.86L139.247 134H135.245L133.129 129.998C132.508 128.802 131.933 128.411 130.139 128.411H127.862V134ZM127.862 121.695V125.812H132.899C134.532 125.812 135.268 125.352 135.268 123.742C135.268 122.224 134.532 121.695 132.899 121.695H127.862ZM143.327 134H139.877V118.59H143.327V134ZM153.252 134H149.802V121.695H144.075V118.59H158.979V121.695H153.252V134ZM168.887 134H165.414V128.894L158.583 118.59H162.838L165.782 123.098L167.07 125.168H167.323L168.611 123.098L171.555 118.59H175.833L168.887 128.917V134Z" fill="black"/>
</svg>
