<svg width="557" height="336" viewBox="0 0 557 336" fill="none" xmlns="http://www.w3.org/2000/svg">
<g clip-path="url(#clip0_122_5919)">
<mask id="mask0_122_5919" style="mask-type:luminance" maskUnits="userSpaceOnUse" x="0" y="9" width="230" height="230">
<path d="M229.435 40.9061L31.9062 9.56494L0.565126 207.094L198.094 238.435L229.435 40.9061Z" fill="white"/>
</mask>
<g mask="url(#mask0_122_5919)">
<path fill-rule="evenodd" clip-rule="evenodd" d="M125.398 58.4647C118.262 57.3323 111.558 62.1999 110.426 69.3368L77.1964 64.0645C81.2406 38.5756 105.182 21.1913 130.671 25.2355C156.16 29.2798 173.544 53.221 169.5 78.7099C165.456 104.199 141.515 121.583 116.025 117.539L121.298 84.3096C128.434 85.442 135.138 80.5743 136.27 73.4375C137.403 66.3006 132.535 59.5971 125.398 58.4647ZM180.535 134.398C181.668 127.261 176.8 120.558 169.663 119.425L174.936 86.1962C200.425 90.2405 217.809 114.182 213.765 139.671C209.72 165.16 185.78 182.544 160.29 178.5C134.801 174.455 117.417 150.514 121.461 125.025L154.691 130.298C153.558 137.434 158.426 144.138 165.563 145.27C172.699 146.403 179.403 141.535 180.535 134.398ZM60.337 128.575C53.2001 127.442 48.3326 120.739 49.4649 113.602C50.5973 106.465 57.3008 101.597 64.4377 102.73C71.5745 103.862 76.4422 110.566 75.3098 117.703L108.539 122.975C112.583 97.486 95.1989 73.5447 69.7101 69.5005C44.2212 65.4563 20.2799 82.8406 16.2357 108.329C12.1914 133.819 29.5758 157.76 55.0647 161.804L60.337 128.575ZM104.602 189.535C111.739 190.668 118.442 185.8 119.575 178.663L152.804 183.936C148.76 209.425 124.819 226.809 99.3297 222.765C73.8408 218.72 56.4564 194.779 60.5007 169.29C64.5449 143.801 88.4862 126.417 113.975 130.461L108.703 163.691C101.566 162.558 94.8623 167.426 93.7299 174.563C92.5976 181.699 97.4651 188.403 104.602 189.535Z" fill="url(#paint0_linear_122_5919)"/>
</g>
</g>
<path fill-rule="evenodd" clip-rule="evenodd" d="M347.888 163.067C349.644 158.961 350.618 154.43 350.618 149.668C350.618 131.074 335.769 116 317.452 116C299.135 116 284.286 131.074 284.286 149.668C284.286 154.43 285.26 158.961 287.017 163.067C280.988 154.643 271.207 149.166 260.166 149.166C241.849 149.166 227 164.24 227 182.834C227 199.441 238.844 213.24 254.425 216C238.844 218.76 227 232.559 227 249.166C227 267.76 241.849 282.834 260.166 282.834C271.207 282.834 280.988 277.357 287.017 268.933C285.26 273.039 284.286 277.57 284.286 282.332C284.286 300.926 299.135 316 317.452 316C335.769 316 350.618 300.926 350.618 282.332C350.618 277.57 349.644 273.039 347.888 268.933C353.916 277.357 363.697 282.834 374.739 282.834C393.056 282.834 407.905 267.76 407.905 249.166C407.905 232.559 396.06 218.76 380.479 216C396.06 213.24 407.905 199.441 407.905 182.834C407.905 164.24 393.056 149.166 374.739 149.166C363.697 149.166 353.916 154.643 347.888 163.067ZM344.303 262.565C342.547 258.459 341.573 253.928 341.573 249.166C341.573 232.559 353.417 218.76 368.998 216C353.417 213.24 341.573 199.441 341.573 182.834C341.573 178.072 342.547 173.541 344.303 169.435C338.275 177.859 328.494 183.337 317.452 183.337C306.411 183.337 296.63 177.859 290.601 169.435C292.358 173.541 293.332 178.072 293.332 182.834C293.332 199.441 281.487 213.24 265.907 216C281.487 218.76 293.332 232.559 293.332 249.166C293.332 253.928 292.358 258.459 290.601 262.565C296.63 254.141 306.411 248.663 317.452 248.663C328.494 248.663 338.275 254.141 344.303 262.565Z" fill="url(#paint1_linear_122_5919)"/>
<g clip-path="url(#clip1_122_5919)">
<mask id="mask1_122_5919" style="mask-type:luminance" maskUnits="userSpaceOnUse" x="428" y="0" width="161" height="160">
<path d="M588.248 0H428V160H588.248V0Z" fill="white"/>
</mask>
<g mask="url(#mask1_122_5919)">
<path fill-rule="evenodd" clip-rule="evenodd" d="M428 39.2H450.034H450.435V39.1954C459.764 38.9829 467.261 31.3656 467.261 22V0H472.068V22.4C472.068 31.6784 479.602 39.2 488.894 39.2C498.187 39.2 505.72 31.6784 505.72 22.4V0H510.528V22.4C510.528 31.6784 518.061 39.2 527.354 39.2C536.647 39.2 544.18 31.6784 544.18 22.4V0H549.789V22.4C549.789 31.6784 557.322 39.2 566.615 39.2H588.248V44H565.814C556.521 44 548.988 51.5216 548.988 60.8C548.988 70.0784 556.521 77.6 565.814 77.6H588.248V82.4H565.814C556.521 82.4 548.988 89.9216 548.988 99.2C548.988 108.478 556.521 116 565.814 116H588.248V120.8H566.615C557.322 120.8 549.789 128.322 549.789 137.6V138.4V160H544.18V137.6C544.18 128.322 536.647 120.8 527.354 120.8C518.061 120.8 510.528 128.322 510.528 137.6V160H505.72V137.6C505.72 128.322 498.187 120.8 488.894 120.8C479.602 120.8 472.068 128.322 472.068 137.6V160H467.261V138C467.261 128.634 459.764 121.017 450.435 120.805V120.8H450.034H428V116H450.435C459.728 116 467.261 108.478 467.261 99.2C467.261 89.9216 459.728 82.4 450.435 82.4H428V77.6H450.435C459.728 77.6 467.261 70.0784 467.261 60.8C467.261 51.5216 459.728 44 450.435 44H428V39.2ZM488.894 77.6C498.187 77.6 505.72 70.0784 505.72 60.8C505.72 51.5216 498.187 44 488.894 44C479.602 44 472.068 51.5216 472.068 60.8C472.068 70.0784 479.602 77.6 488.894 77.6ZM527.354 77.6C536.647 77.6 544.18 70.0784 544.18 60.8C544.18 51.5216 536.647 44 527.354 44C518.061 44 510.528 51.5216 510.528 60.8C510.528 70.0784 518.061 77.6 527.354 77.6ZM505.72 99.2C505.72 108.478 498.187 116 488.894 116C479.602 116 472.068 108.478 472.068 99.2C472.068 89.9216 479.602 82.4 488.894 82.4C498.187 82.4 505.72 89.9216 505.72 99.2ZM527.354 116C536.647 116 544.18 108.478 544.18 99.2C544.18 89.9216 536.647 82.4 527.354 82.4C518.061 82.4 510.528 89.9216 510.528 99.2C510.528 108.478 518.061 116 527.354 116Z" fill="url(#paint2_linear_122_5919)"/>
</g>
</g>
<g clip-path="url(#clip2_122_5919)">
<mask id="mask2_122_5919" style="mask-type:luminance" maskUnits="userSpaceOnUse" x="2" y="253" width="152" height="153">
<path d="M154 253H2V405.294H154V253Z" fill="white"/>
</mask>
<g mask="url(#mask2_122_5919)">
<path fill-rule="evenodd" clip-rule="evenodd" d="M78 405.294C119.973 405.294 154 371.201 154 329.147C154 287.092 119.973 253 78 253C36.0263 253 2 287.092 2 329.147C2 371.201 36.0263 405.294 78 405.294ZM78 396.156C114.937 396.156 144.88 366.155 144.88 329.147C144.88 292.139 114.937 262.138 78 262.138C41.0632 262.138 11.12 292.139 11.12 329.147C11.12 366.155 41.0632 396.156 78 396.156ZM78 387.018C109.9 387.018 135.76 361.109 135.76 329.147C135.76 297.185 109.9 271.275 78 271.275C46.1001 271.275 20.24 297.185 20.24 329.147C20.24 361.109 46.1001 387.018 78 387.018ZM78 377.881C104.863 377.881 126.64 356.062 126.64 329.147C126.64 302.232 104.863 280.413 78 280.413C51.1369 280.413 29.36 302.232 29.36 329.147C29.36 356.062 51.1369 377.881 78 377.881ZM117.52 329.147C117.52 351.015 99.8264 368.743 78 368.743C56.1737 368.743 38.48 351.015 38.48 329.147C38.48 307.278 56.1737 289.55 78 289.55C99.8264 289.55 117.52 307.278 117.52 329.147ZM108.4 329.147C108.4 345.968 94.7892 359.605 78 359.605C61.2105 359.605 47.6 345.968 47.6 329.147C47.6 312.325 61.2105 298.688 78 298.688C94.7892 298.688 108.4 312.325 108.4 329.147Z" fill="url(#paint3_linear_122_5919)"/>
</g>
</g>
<defs>
<linearGradient id="paint0_linear_122_5919" x1="130.671" y1="25.2355" x2="99.3297" y2="222.765" gradientUnits="userSpaceOnUse">
<stop stop-color="#B8DBFC"/>
<stop offset="1" stop-color="#F8FBFE"/>
</linearGradient>
<linearGradient id="paint1_linear_122_5919" x1="387.1" y1="116" x2="248.864" y2="254.679" gradientUnits="userSpaceOnUse">
<stop stop-color="#B0B9FF"/>
<stop offset="1" stop-color="#E7E9FF"/>
</linearGradient>
<linearGradient id="paint2_linear_122_5919" x1="444.425" y1="12.8" x2="507.958" y2="160.072" gradientUnits="userSpaceOnUse">
<stop stop-color="#ACAAFF"/>
<stop offset="1" stop-color="#C0E8FF"/>
</linearGradient>
<linearGradient id="paint3_linear_122_5919" x1="22.9" y1="267.468" x2="115.461" y2="385.703" gradientUnits="userSpaceOnUse">
<stop stop-color="#FFD9A0"/>
<stop offset="1" stop-color="#FFF5F1"/>
</linearGradient>
<clipPath id="clip0_122_5919">
<rect width="200" height="200" fill="white" transform="translate(31.9062 9.56494) rotate(9.01573)"/>
</clipPath>
<clipPath id="clip1_122_5919">
<rect width="129" height="160" fill="white" transform="translate(428)"/>
</clipPath>
<clipPath id="clip2_122_5919">
<rect width="152" height="83" fill="white" transform="translate(2 253)"/>
</clipPath>
</defs>
</svg>
