<svg width="151" height="199" viewBox="0 0 151 199" fill="none" xmlns="http://www.w3.org/2000/svg">
<path opacity="0.3" fill-rule="evenodd" clip-rule="evenodd" d="M61.833 33.8998C54.6961 32.7674 47.9926 37.635 46.8602 44.7719L13.631 39.4995C17.6752 14.0107 41.6165 -3.37365 67.1054 0.670562C92.5945 4.71482 109.979 28.6561 105.934 54.1449C101.89 79.6338 77.9491 97.0181 52.46 92.9738L57.7323 59.7447C64.869 60.877 71.5726 56.0094 72.705 48.8726C73.8374 41.7357 68.9697 35.0321 61.833 33.8998ZM116.97 109.833C118.102 102.696 113.235 95.9929 106.098 94.8605L111.37 61.6313C136.859 65.6755 154.244 89.6168 150.199 115.106C146.155 140.595 122.214 157.979 96.7249 153.935C71.2358 149.89 53.8517 125.949 57.896 100.46L91.1253 105.733C89.9929 112.869 94.8606 119.573 101.997 120.705C109.134 121.838 115.838 116.97 116.97 109.833ZM-3.2284 104.01C-10.3653 102.877 -15.2329 96.1736 -14.1005 89.0369C-12.9681 81.9 -6.26463 77.0324 0.872289 78.1648C8.00911 79.2972 12.8768 86.0007 11.7444 93.1376L44.9735 98.4099C49.0177 72.9211 31.6335 48.9798 6.14463 44.9356C-19.3442 40.8913 -43.2855 58.2757 -47.3297 83.7645C-51.374 109.254 -33.9896 133.195 -8.50076 137.239L-3.2284 104.01ZM41.0366 164.97C48.1733 166.103 54.8769 161.235 56.0093 154.098L89.2386 159.371C85.1944 184.86 61.2534 202.244 35.7642 198.2C10.2754 194.155 -7.10901 170.214 -3.06475 144.725C0.979507 119.236 24.9208 101.852 50.4096 105.896L45.1373 139.126C38.0003 137.993 31.2968 142.861 30.1645 149.998C29.0321 157.134 33.8997 163.838 41.0366 164.97Z" fill="url(#paint0_linear_23_3648)"/>
<defs>
<linearGradient id="paint0_linear_23_3648" x1="67.1054" y1="0.670562" x2="35.7642" y2="198.2" gradientUnits="userSpaceOnUse">
<stop stop-color="#B8DBFC"/>
<stop offset="1" stop-color="#F8FBFE"/>
</linearGradient>
</defs>
</svg>
