<svg width="150" height="150" viewBox="0 0 150 150" fill="none" xmlns="http://www.w3.org/2000/svg">
<path d="M71.1942 140.005L67.3306 139.735L67.356 139.373C67.3976 138.781 67.5417 138.233 67.7885 137.729C68.0353 137.226 68.3568 136.802 68.753 136.457C69.145 136.116 69.6075 135.859 70.1406 135.685C70.6736 135.51 71.2363 135.444 71.8286 135.485C72.4287 135.527 72.988 135.676 73.5066 135.931C74.0209 136.19 74.4558 136.522 74.8112 136.926C75.1626 137.331 75.431 137.804 75.6162 138.345C75.7972 138.89 75.8667 139.463 75.8246 140.063C75.7685 140.862 75.5306 141.574 75.1108 142.198C74.6908 142.827 74.1385 143.303 73.454 143.628C72.7653 143.955 72.0156 144.091 71.2051 144.035C70.4764 143.984 69.8168 143.785 69.2264 143.439C68.632 143.092 68.1665 142.638 67.8299 142.079L68.6996 141.487C68.9631 141.917 69.3185 142.265 69.7659 142.531C70.209 142.8 70.7033 142.954 71.2489 142.992C71.849 143.034 72.4063 142.932 72.9209 142.686C73.4316 142.44 73.8446 142.079 74.1599 141.603C74.4752 141.128 74.654 140.588 74.6964 139.984C74.761 139.065 74.5091 138.274 73.9408 137.612C73.3683 136.953 72.628 136.592 71.7201 136.529C70.9251 136.474 70.2306 136.662 69.6363 137.094C69.0379 137.53 68.67 138.114 68.5326 138.844L71.2623 139.034L71.1942 140.005Z" fill="white"/>
<path d="M63.8538 135.742L59.5662 134.834L59.7813 133.825L65.1466 134.962L63.4194 143.059L58.1114 141.935L58.3265 140.926L62.5569 141.822L63.0923 139.312L59.2517 138.499L59.4669 137.49L63.3074 138.304L63.8538 135.742Z" fill="white"/>
<path d="M48.6335 138.821L48.9874 137.853L51.4826 138.758L53.9694 131.95L54.994 132.321L52.5072 139.129L55.0024 140.034L54.6486 141.003L48.6335 138.821Z" fill="white"/>
<path d="M40.0207 124.666L35.1429 131.356L34.2506 130.71L39.1284 124.02L40.0207 124.666Z" fill="white"/>
<path d="M25.1924 122.893L24.4029 122.133L30.1648 116.188L30.9797 116.972L29.8676 124.846L34.3532 120.218L35.1469 120.982L29.385 126.927L28.5659 126.139L29.6943 118.248L25.1924 122.893Z" fill="white"/>
<path d="M13.6569 106.948L14.5508 106.434L15.8815 108.73L22.1641 105.116L22.7105 106.059L16.4279 109.673L17.7586 111.97L16.8647 112.484L13.6569 106.948Z" fill="white"/>
<path d="M18.6951 97.6477C18.9241 98.2124 19.0377 98.7836 19.0358 99.3612C19.0304 99.9403 18.9238 100.478 18.7162 100.974C18.5085 101.471 18.2019 101.92 17.7964 102.324C17.3858 102.725 16.9015 103.038 16.3434 103.262C15.6006 103.561 14.8561 103.659 14.1101 103.555C13.3604 103.453 12.6894 103.165 12.0971 102.692C11.4997 102.216 11.0484 101.602 10.7431 100.849C10.4378 100.096 10.335 99.3437 10.4348 98.5919C10.5295 97.8379 10.8108 97.1646 11.2787 96.572C11.7415 95.9773 12.3443 95.5304 13.0871 95.2313C13.83 94.9322 14.5769 94.8357 15.3281 94.9418C16.0778 95.0442 16.7513 95.3331 17.3487 95.8085C17.941 96.2817 18.3898 96.8947 18.6951 97.6477ZM17.9342 99.7163C18.0102 99.1551 17.9359 98.5976 17.7113 98.0438C17.4867 97.4899 17.1522 97.0393 16.7079 96.6918C16.262 96.3407 15.7587 96.1286 15.1979 96.0553C14.632 95.98 14.0701 96.0546 13.512 96.2793C12.954 96.5039 12.4995 96.8385 12.1486 97.2829C11.7927 97.7252 11.5785 98.2262 11.5062 98.7859C11.4287 99.3435 11.5023 99.8992 11.7269 100.453C11.8957 100.869 12.131 101.231 12.4329 101.539C12.7334 101.844 13.0687 102.073 13.4389 102.227C13.8091 102.381 14.2099 102.46 14.6411 102.463C15.0724 102.466 15.4982 102.383 15.9185 102.214C16.4765 101.99 16.9336 101.656 17.2895 101.214C17.6419 100.773 17.8568 100.274 17.9342 99.7163Z" fill="white"/>
<path d="M15.9009 88.8892C16.0536 89.4993 16.0522 90.0893 15.8969 90.6592C15.7406 91.2253 15.4534 91.7112 15.0355 92.1169C14.6138 92.5235 14.1015 92.8017 13.4988 92.9515L8.54013 94.1834L8.27417 93.1205L13.2101 91.8942C13.8394 91.7379 14.3142 91.3985 14.6345 90.8762C14.95 90.351 15.0291 89.7739 14.8717 89.1449C14.7133 88.512 14.3711 88.0376 13.8451 87.7215C13.3152 87.4064 12.7357 87.327 12.1064 87.4833L7.17048 88.7096L6.90593 87.6523L11.8646 86.4204C12.4673 86.2707 13.0507 86.2767 13.6146 86.4384C14.1748 86.6011 14.6577 86.8977 15.0634 87.3283C15.4682 87.755 15.7473 88.2753 15.9009 88.8892Z" fill="white"/>
<path d="M14.564 80.7917C14.6279 81.3978 14.5792 81.9783 14.4177 82.5332C14.2524 83.0886 14.0014 83.5764 13.6647 83.9966C13.328 84.4168 12.9091 84.765 12.408 85.0414C11.9026 85.3143 11.3508 85.482 10.7525 85.5447C9.95605 85.6281 9.21377 85.5173 8.52563 85.2123C7.83362 84.9077 7.26845 84.4465 6.83012 83.8287C6.3875 83.2073 6.12358 82.4927 6.03835 81.6846C5.95926 80.9349 6.05359 80.2279 6.32132 79.5635C6.58516 78.8996 6.98214 78.3435 7.51226 77.8953L8.19458 78.7782C7.79326 79.107 7.4946 79.5153 7.29861 80.0032C7.10261 80.4911 7.03412 81.0148 7.09313 81.5742C7.14025 82.0209 7.26629 82.4339 7.47126 82.813C7.67581 83.1883 7.93465 83.5009 8.24775 83.7509C8.56086 84.0009 8.92415 84.1867 9.33763 84.3084C9.75111 84.43 10.1832 84.4673 10.6338 84.4201C11.2321 84.3574 11.7634 84.1623 12.2277 83.8348C12.6882 83.5078 13.0326 83.0868 13.2611 82.5719C13.4892 82.0531 13.5719 81.4966 13.5092 80.9022C13.4502 80.3428 13.2739 79.8448 12.9804 79.4081C12.6869 78.9715 12.3096 78.634 11.8484 78.3956L12.3316 77.3905C12.9437 77.7192 13.45 78.1807 13.8505 78.775C14.2471 79.3698 14.4849 80.042 14.564 80.7917Z" fill="white"/>
<path d="M5.99391 70.1513L6.03249 69.0504L14.3068 69.3383L14.2682 70.4392L10.62 70.3123L10.4585 74.9208L14.1067 75.0477L14.0681 76.1486L5.79382 75.8607L5.8324 74.7598L9.42788 74.8849L9.58939 70.2764L5.99391 70.1513Z" fill="white"/>
<path d="M20.5531 39.1595L22.7242 35.9522L23.0257 36.1549C23.5185 36.4861 23.9214 36.8839 24.2343 37.3484C24.5473 37.8129 24.7537 38.3023 24.8537 38.8166C24.9526 39.3255 24.944 39.8539 24.8278 40.4018C24.7117 40.9497 24.4872 41.4695 24.1543 41.9612C23.8171 42.4593 23.4077 42.869 22.9262 43.1901C22.4436 43.5059 21.9378 43.7165 21.4087 43.8222C20.8818 43.9246 20.3371 43.9209 19.7746 43.8111C19.2111 43.696 18.6797 43.4706 18.1804 43.135C17.5158 42.6883 17.0179 42.1278 16.6867 41.4533C16.3522 40.7767 16.216 40.0616 16.2781 39.3079C16.3391 38.5488 16.5974 37.8328 17.0528 37.16C17.4623 36.5551 17.9654 36.0837 18.562 35.7458C19.1609 35.4046 19.7875 35.228 20.4419 35.216L20.5185 36.263C20.0139 36.2768 19.534 36.4108 19.0789 36.665C18.6228 36.9138 18.2414 37.2646 17.9349 37.7175C17.5977 38.2157 17.4067 38.7486 17.362 39.3163C17.3196 39.8808 17.4254 40.4178 17.6795 40.9275C17.9335 41.4371 18.3118 41.8608 18.8143 42.1985C19.5795 42.7128 20.3917 42.8892 21.2509 42.7278C22.1091 42.561 22.7934 42.1007 23.3036 41.347C23.7503 40.6871 23.9351 39.9924 23.8582 39.2629C23.7801 38.5281 23.4588 37.9191 22.8943 37.4361L21.3604 39.7021L20.5531 39.1595Z" fill="white"/>
<path d="M27.9279 34.9562L30.8663 31.7043L31.6339 32.393L27.9569 36.4622L21.7944 30.9332L25.4321 26.9075L26.1997 27.5962L23.3005 30.8045L25.2108 32.5184L27.8428 29.6057L28.6104 30.2943L25.9784 33.2071L27.9279 34.9562Z" fill="white"/>
<path d="M32.8794 20.2884L33.5437 21.0772L31.5074 22.7798L36.1761 28.3239L35.34 29.023L30.6713 23.4788L28.635 25.1814L27.9707 24.3926L32.8794 20.2884Z" fill="white"/>
<path d="M49.4943 19.9495L46.1168 12.3905L47.1237 11.9438L50.5012 19.5028L49.4943 19.9495Z" fill="white"/>
<path d="M58.4448 8.04108L59.4983 7.74005L61.7879 15.6965L60.7006 16.0071L54.4167 11.0994L56.1991 17.2933L55.1399 17.596L52.8503 9.63955L53.9433 9.32726L60.2337 14.2575L58.4448 8.04108Z" fill="white"/>
<path d="M78.0404 5.7207V6.75195L75.3861 6.75195V14H74.2963V6.75195L71.642 6.75195V5.7207L78.0404 5.7207Z" fill="white"/>
<path d="M83.6299 15.09C83.0264 15.0055 82.475 14.8178 81.9755 14.527C81.4766 14.2323 81.0641 13.8708 80.7379 13.4425C80.4117 13.0142 80.1752 12.5236 80.0283 11.9705C79.8859 11.4141 79.8567 10.8381 79.9407 10.2425C80.0525 9.44952 80.3397 8.75608 80.8022 8.16214C81.2652 7.56433 81.8495 7.12747 82.5551 6.85157C83.2651 6.57234 84.0225 6.48907 84.8271 6.60175C85.6318 6.71443 86.3348 7.00221 86.9362 7.46509C87.542 7.92465 87.9848 8.50534 88.2645 9.20716C88.5486 9.90566 88.6348 10.6514 88.523 11.4443C88.4111 12.2372 88.1218 12.9323 87.6549 13.5296C87.1918 14.1274 86.6053 14.5659 85.8953 14.8452C85.1897 15.1211 84.4346 15.2027 83.6299 15.09ZM82.218 13.3954C82.6661 13.7421 83.1861 13.957 83.778 14.0398C84.3699 14.1227 84.9273 14.0588 85.4501 13.848C85.9768 13.6378 86.4119 13.3082 86.7553 12.8593C87.1031 12.4071 87.319 11.8831 87.403 11.2875C87.487 10.6918 87.4242 10.1308 87.2144 9.60442C87.009 9.07473 86.6819 8.63844 86.2332 8.29555C85.789 7.94934 85.2709 7.73479 84.679 7.6519C84.2341 7.5896 83.8029 7.61205 83.3854 7.71925C82.9718 7.82698 82.6058 8.00253 82.2875 8.24589C81.9691 8.48924 81.7009 8.79681 81.4827 9.16859C81.2646 9.54037 81.1239 9.9506 81.0606 10.3993C80.9766 10.995 81.0373 11.5576 81.2427 12.0873C81.4486 12.6132 81.7737 13.0492 82.218 13.3954Z" fill="white"/>
<path d="M92.6332 17.0578C92.0285 16.8851 91.5182 16.5889 91.1024 16.1695C90.6903 15.7511 90.4131 15.2596 90.2707 14.6948C90.1295 14.1263 90.1447 13.5437 90.3165 12.9468L91.7295 8.03667L92.783 8.33769L91.3765 13.2253C91.1972 13.8484 91.2536 14.4292 91.5458 14.9677C91.8428 15.5035 92.303 15.8605 92.9265 16.0387C93.5537 16.2179 94.1358 16.1587 94.6726 15.8611C95.2105 15.5598 95.5691 15.0976 95.7484 14.4744L97.1549 9.58685L98.2028 9.88627L96.7899 14.7964C96.6181 15.3932 96.3211 15.8954 95.899 16.303C95.478 16.7067 94.9796 16.9767 94.4039 17.1128C93.8319 17.25 93.2417 17.2317 92.6332 17.0578Z" fill="white"/>
<path d="M100.333 19.9494C99.7759 19.7023 99.2974 19.3703 98.8975 18.9536C98.4992 18.5333 98.2023 18.0725 98.007 17.5714C97.8116 17.0702 97.7197 16.5337 97.7313 15.962C97.7481 15.3882 97.8792 14.8267 98.1246 14.2775C98.4513 13.5464 98.9191 12.9591 99.528 12.5155C100.138 12.0685 100.821 11.8094 101.576 11.7383C102.336 11.6652 103.087 11.7934 103.83 12.1229C104.519 12.4286 105.084 12.8631 105.526 13.4265C105.969 13.9862 106.252 14.6074 106.374 15.2901L105.268 15.4402C105.184 14.9286 104.98 14.4663 104.655 14.0531C104.331 13.6399 103.912 13.3193 103.397 13.0912C102.987 12.909 102.566 12.812 102.135 12.8002C101.707 12.79 101.307 12.8581 100.933 13.0044C100.56 13.1506 100.217 13.3724 99.9044 13.6697C99.5918 13.9669 99.3432 14.3224 99.1583 14.7361C98.9129 15.2853 98.8158 15.8426 98.8669 16.408C98.9196 16.9699 99.1118 17.4782 99.4434 17.933C99.7785 18.3894 100.219 18.7387 100.766 18.9811C101.28 19.2092 101.799 19.3052 102.325 19.269C102.85 19.2328 103.332 19.0746 103.769 18.7944L104.398 19.7143C103.806 20.0801 103.153 20.2881 102.437 20.3382C101.724 20.3847 101.022 20.2551 100.333 19.9494Z" fill="white"/>
<path d="M113.871 17.8456L114.806 18.4278L110.407 25.442L109.472 24.8598L111.412 21.7672L107.497 19.3298L105.558 22.4224L104.623 21.8402L109.021 14.826L109.956 15.4082L108.045 18.4561L111.959 20.8935L113.871 17.8456Z" fill="white"/>
<path d="M133.543 45.8939L135.246 49.3726L134.919 49.5314C134.385 49.7909 133.838 49.9395 133.278 49.9771C132.718 50.0148 132.19 49.948 131.693 49.7769C131.201 49.6076 130.746 49.3358 130.328 48.9613C129.91 48.5869 129.57 48.1331 129.309 47.5998C129.045 47.0595 128.893 46.5012 128.855 45.9249C128.822 45.3504 128.891 44.8084 129.064 44.299C129.238 43.793 129.513 43.3248 129.89 42.8943C130.271 42.4656 130.733 42.1198 131.274 41.8569C131.994 41.5068 132.73 41.3577 133.481 41.4093C134.236 41.4593 134.926 41.6996 135.55 42.1304C136.179 42.5629 136.672 43.144 137.03 43.8738C137.351 44.5299 137.509 45.2 137.505 45.884C137.502 46.5715 137.342 47.2006 137.026 47.7714L136.078 47.3136C136.318 46.8712 136.441 46.39 136.448 45.87C136.459 45.3519 136.345 44.8472 136.104 44.356C135.84 43.8157 135.472 43.3842 135.001 43.0616C134.532 42.7425 134.012 42.565 133.442 42.5292C132.873 42.4935 132.315 42.6079 131.771 42.8726C130.942 43.2755 130.383 43.8882 130.094 44.7105C129.81 45.5346 129.868 46.3554 130.268 47.1729C130.618 47.8886 131.13 48.3958 131.802 48.6944C132.48 48.9948 133.17 49.0223 133.871 48.7768L132.668 46.3191L133.543 45.8939Z" fill="white"/>
<path d="M133.521 54.3544L134.879 58.5213L133.898 58.8389L132.198 53.6248L140.075 51.0746L141.757 56.233L140.776 56.5507L139.435 52.4395L136.994 53.23L138.211 56.9624L137.23 57.28L136.013 53.5477L133.521 54.3544Z" fill="white"/>
<path d="M143.79 65.9721L142.774 66.1506L142.312 63.5369L135.173 64.7911L134.983 63.718L142.122 62.4637L141.659 59.85L142.675 59.6716L143.79 65.9721Z" fill="white"/>
<path d="M135.806 80.4769L144.04 81.3393L143.925 82.4348L135.691 81.5724L135.806 80.4769Z" fill="white"/>
<path d="M141.655 94.1641L141.389 95.227L133.354 93.2308L133.629 92.1338L141.02 89.1462L134.765 87.5922L135.032 86.5235L143.067 88.5198L142.792 89.6225L135.377 92.6044L141.655 94.1641Z" fill="white"/>
<path d="M133.557 112.085L132.663 111.571L133.994 109.274L127.711 105.66L128.258 104.717L134.54 108.331L135.871 106.035L136.765 106.549L133.557 112.085Z" fill="white"/>
<path d="M122.945 112.38C123.321 111.9 123.76 111.517 124.263 111.23C124.769 110.946 125.289 110.77 125.825 110.701C126.36 110.633 126.904 110.673 127.458 110.822C128.012 110.976 128.526 111.238 129.001 111.607C129.633 112.099 130.09 112.693 130.374 113.389C130.66 114.087 130.746 114.81 130.632 115.557C130.518 116.31 130.21 117.006 129.709 117.646C129.208 118.285 128.605 118.749 127.902 119.039C127.199 119.333 126.474 119.427 125.724 119.318C124.976 119.216 124.286 118.919 123.654 118.427C123.022 117.935 122.564 117.338 122.28 116.637C121.993 115.939 121.907 115.213 122.021 114.46C122.135 113.713 122.443 113.019 122.945 112.38ZM125.123 112.004C124.598 112.219 124.15 112.561 123.782 113.031C123.413 113.502 123.189 114.015 123.109 114.572C123.028 115.132 123.095 115.673 123.313 116.193C123.531 116.72 123.877 117.167 124.352 117.537C124.826 117.906 125.344 118.132 125.906 118.213C126.469 118.299 127.012 118.234 127.534 118.017C128.057 117.806 128.503 117.465 128.872 116.994C129.149 116.641 129.346 116.257 129.462 115.843C129.576 115.431 129.608 115.027 129.556 114.631C129.505 114.234 129.372 113.849 129.159 113.475C128.946 113.102 128.661 112.775 128.303 112.497C127.828 112.128 127.31 111.899 126.747 111.813C126.188 111.729 125.646 111.793 125.123 112.004Z" fill="white"/>
<path d="M116.724 119.161C117.177 118.725 117.69 118.432 118.263 118.282C118.833 118.135 119.398 118.141 119.96 118.3C120.525 118.461 121.023 118.765 121.455 119.211L125.011 122.88L124.222 123.64L120.682 119.987C120.231 119.522 119.698 119.281 119.084 119.265C118.47 119.254 117.929 119.473 117.462 119.923C116.992 120.375 116.751 120.907 116.741 121.519C116.733 122.134 116.954 122.674 117.406 123.14L120.945 126.792L120.16 127.548L116.604 123.879C116.172 123.433 115.885 122.926 115.742 122.358C115.603 121.793 115.618 121.228 115.788 120.663C115.956 120.101 116.268 119.6 116.724 119.161Z" fill="white"/>
<path d="M110.351 124.354C110.844 123.996 111.372 123.749 111.935 123.612C112.499 123.478 113.048 123.452 113.582 123.534C114.115 123.615 114.627 123.804 115.118 124.099C115.609 124.4 116.031 124.794 116.385 125.28C116.857 125.927 117.133 126.624 117.214 127.371C117.297 128.121 117.18 128.84 116.864 129.527C116.547 130.219 116.059 130.804 115.401 131.28C114.791 131.722 114.13 131.993 113.42 132.093C112.711 132.195 112.03 132.129 111.375 131.895L111.799 130.864C112.285 131.048 112.789 131.102 113.311 131.029C113.832 130.955 114.321 130.753 114.776 130.423C115.14 130.16 115.435 129.845 115.661 129.479C115.884 129.115 116.026 128.735 116.085 128.34C116.145 127.944 116.124 127.538 116.022 127.12C115.921 126.701 115.736 126.309 115.469 125.943C115.115 125.457 114.679 125.095 114.162 124.857C113.648 124.622 113.11 124.534 112.548 124.593C111.984 124.654 111.46 124.86 110.976 125.21C110.52 125.54 110.176 125.941 109.945 126.412C109.713 126.884 109.61 127.378 109.634 127.896L108.52 127.979C108.498 127.286 108.645 126.618 108.959 125.976C109.276 125.336 109.74 124.796 110.351 124.354Z" fill="white"/>
<path d="M105.405 137.079L104.431 137.595L100.534 130.291L101.507 129.775L103.226 132.996L107.3 130.837L105.582 127.616L106.555 127.1L110.453 134.405L109.48 134.921L107.786 131.746L103.711 133.905L105.405 137.079Z" fill="white"/>
<ellipse cx="13.1142" cy="54.2786" rx="1.00876" ry="1.00517" fill="white"/>
<ellipse cx="122.06" cy="31.1604" rx="1.00876" ry="1.00517" fill="white"/>
<ellipse cx="87.7627" cy="138.713" rx="1.00876" ry="1.00517" fill="white"/>
</svg>
