<svg width="37" height="37" viewBox="0 0 37 37" fill="none" xmlns="http://www.w3.org/2000/svg">
<g clip-path="url(#clip0_129_48)">
<path d="M12.5957 19.8958V7.07998C12.5957 6.48016 12.8348 5.90491 13.2605 5.48077C13.6861 5.05664 14.2635 4.81836 14.8654 4.81836C15.4674 4.81836 16.0447 5.05664 16.4703 5.48077C16.896 5.90491 17.1351 6.48016 17.1351 7.07998V18.3881" stroke="white" stroke-width="1.4" stroke-linecap="round" stroke-linejoin="round"/>
<path d="M17.1348 17.6336V14.6181C17.1348 14.0182 17.3739 13.443 17.7995 13.0189C18.2252 12.5947 18.8025 12.3564 19.4045 12.3564C20.0064 12.3564 20.5838 12.5947 21.0094 13.0189C21.4351 13.443 21.6742 14.0182 21.6742 14.6181V18.3874" stroke="white" stroke-width="1.4" stroke-linecap="round" stroke-linejoin="round"/>
<path d="M21.6738 16.1259C21.6738 15.5261 21.913 14.9508 22.3386 14.5267C22.7643 14.1025 23.3416 13.8643 23.9435 13.8643C24.5455 13.8643 25.1228 14.1025 25.5485 14.5267C25.9741 14.9508 26.2133 15.5261 26.2133 16.1259V18.3875" stroke="white" stroke-width="1.4" stroke-linecap="round" stroke-linejoin="round"/>
<path d="M26.2135 17.6337C26.2135 17.0339 26.4527 16.4586 26.8783 16.0345C27.304 15.6103 27.8813 15.3721 28.4833 15.3721C29.0852 15.3721 29.6625 15.6103 30.0882 16.0345C30.5138 16.4586 30.753 17.0339 30.753 17.6337V24.4186C30.753 26.8178 29.7965 29.1189 28.0938 30.8154C26.3912 32.5119 24.082 33.4651 21.6741 33.4651H18.6478H18.9626C17.459 33.4653 15.9789 33.0935 14.6552 32.3829C13.3315 31.6724 12.2057 30.6454 11.3787 29.3941L11.0821 28.9418C10.61 28.2196 8.95313 25.3413 6.10994 20.3054C5.8201 19.7921 5.74268 19.1863 5.89414 18.617C6.0456 18.0476 6.414 17.5596 6.92098 17.2568C7.46099 16.9339 8.09378 16.8001 8.71884 16.8766C9.3439 16.9531 9.92539 17.2355 10.3709 17.6789L12.5953 19.8953" stroke="white" stroke-width="1.4" stroke-linecap="round" stroke-linejoin="round"/>
<path d="M8.05611 4.8183L6.54297 3.31055" stroke="white" stroke-width="1.4" stroke-linecap="round" stroke-linejoin="round"/>
<path d="M6.54244 10.8496H5.0293" stroke="white" stroke-width="1.4" stroke-linecap="round" stroke-linejoin="round"/>
<path d="M21.6738 4.8183L23.187 3.31055" stroke="white" stroke-width="1.4" stroke-linecap="round" stroke-linejoin="round"/>
<path d="M23.1875 9.3418H24.7006" stroke="white" stroke-width="1.4" stroke-linecap="round" stroke-linejoin="round"/>
</g>
<defs>
<clipPath id="clip0_129_48">
<rect width="36.3154" height="36.186" fill="white" transform="translate(0.490234 0.294922)"/>
</clipPath>
</defs>
</svg>
