<svg width="199" height="199" viewBox="0 0 199 199" fill="none" xmlns="http://www.w3.org/2000/svg">
<path fill-rule="evenodd" clip-rule="evenodd" d="M109.833 33.8998C102.696 32.7674 95.9928 37.635 94.8605 44.7719L61.6312 39.4995C65.6754 14.0107 89.6167 -3.37365 115.106 0.670562C140.595 4.71482 157.979 28.6561 153.935 54.1449C149.89 79.6338 125.949 97.0181 100.46 92.9738L105.733 59.7447C112.869 60.877 119.573 56.0094 120.705 48.8726C121.838 41.7357 116.97 35.0321 109.833 33.8998ZM164.97 109.833C166.103 102.696 161.235 95.9929 154.098 94.8605L159.371 61.6313C184.86 65.6755 202.244 89.6168 198.2 115.106C194.155 140.595 170.214 157.979 144.725 153.935C119.236 149.89 101.852 125.949 105.896 100.46L139.126 105.733C137.993 112.869 142.861 119.573 149.998 120.705C157.134 121.838 163.838 116.97 164.97 109.833ZM44.7718 104.01C37.6349 102.877 32.7674 96.1736 33.8997 89.0369C35.0321 81.9 41.7356 77.0324 48.8725 78.1648C56.0094 79.2972 60.877 86.0007 59.7446 93.1376L92.9738 98.4099C97.018 72.9211 79.6337 48.9798 54.1449 44.9356C28.656 40.8913 4.71471 58.2757 0.670503 83.7645C-3.37376 109.254 14.0106 133.195 39.4995 137.239L44.7718 104.01ZM89.0368 164.97C96.1736 166.103 102.877 161.235 104.01 154.098L137.239 159.371C133.195 184.86 109.254 202.244 83.7645 198.2C58.2756 194.155 40.8912 170.214 44.9355 144.725C48.9798 119.236 72.921 101.852 98.4099 105.896L93.1375 139.126C86.0006 137.993 79.2971 142.861 78.1647 149.998C77.0324 157.134 81.8999 163.838 89.0368 164.97Z" fill="url(#paint0_linear_81_3623)"/>
<defs>
<linearGradient id="paint0_linear_81_3623" x1="115.106" y1="0.670562" x2="83.7645" y2="198.2" gradientUnits="userSpaceOnUse">
<stop stop-color="#B8DBFC"/>
<stop offset="1" stop-color="#F8FBFE"/>
</linearGradient>
</defs>
</svg>
