<svg width="200" height="200" viewBox="0 0 200 200" fill="none" xmlns="http://www.w3.org/2000/svg">
<path fill-rule="evenodd" clip-rule="evenodd" d="M130.888 47.0671C132.644 42.9611 133.618 38.4302 133.618 33.6683C133.618 15.0738 118.769 0 100.452 0C82.1354 0 67.2865 15.0738 67.2865 33.6683C67.2865 38.4302 68.2603 42.9611 70.0168 47.0671C63.9885 38.6431 54.2073 33.1658 43.1659 33.1658C24.8489 33.1658 10.0001 48.2397 10.0001 66.8342C10.0001 83.4412 21.8444 97.24 37.4253 100C21.8444 102.76 10.0001 116.559 10.0001 133.166C10.0001 151.76 24.8489 166.834 43.1659 166.834C54.2073 166.834 63.9885 161.357 70.0168 152.933C68.2603 157.039 67.2865 161.57 67.2865 166.332C67.2865 184.926 82.1354 200 100.452 200C118.769 200 133.618 184.926 133.618 166.332C133.618 161.57 132.644 157.039 130.888 152.933C136.916 161.357 146.697 166.834 157.739 166.834C176.056 166.834 190.905 151.76 190.905 133.166C190.905 116.559 179.06 102.76 163.479 100C179.06 97.24 190.905 83.4412 190.905 66.8342C190.905 48.2397 176.056 33.1658 157.739 33.1658C146.697 33.1658 136.916 38.6431 130.888 47.0671ZM127.303 146.565C125.547 142.459 124.573 137.928 124.573 133.166C124.573 116.559 136.417 102.76 151.998 100C136.417 97.24 124.573 83.4412 124.573 66.8342C124.573 62.0723 125.547 57.5414 127.303 53.4354C121.275 61.8594 111.494 67.3367 100.452 67.3367C89.411 67.3367 79.6298 61.8594 73.6015 53.4354C75.358 57.5414 76.3318 62.0723 76.3318 66.8342C76.3318 83.4412 64.4875 97.24 48.9066 100C64.4875 102.76 76.3318 116.559 76.3318 133.166C76.3318 137.928 75.358 142.459 73.6015 146.565C79.6298 138.141 89.411 132.663 100.452 132.663C111.494 132.663 121.275 138.141 127.303 146.565Z" fill="url(#paint0_linear_81_3621)"/>
<defs>
<linearGradient id="paint0_linear_81_3621" x1="170.1" y1="-2.0514e-05" x2="31.8636" y2="138.679" gradientUnits="userSpaceOnUse">
<stop stop-color="#B0B9FF"/>
<stop offset="1" stop-color="#E7E9FF"/>
</linearGradient>
</defs>
</svg>
