<svg width="81" height="32" viewBox="0 0 81 32" fill="none" xmlns="http://www.w3.org/2000/svg">
<path fill-rule="evenodd" clip-rule="evenodd" d="M32.9221 0.943027C30.7217 1.45921 28.9173 1.88347 28.9122 1.88577C28.9018 1.89057 27.9879 6.794 27.9879 6.84485C27.9879 6.86309 27.3402 6.87803 26.5486 6.87803H25.1094L25.0819 6.99808C25.0668 7.06413 24.8249 8.39058 24.5445 9.94581C24.2642 11.501 24.0225 12.8151 24.0076 12.866C23.9824 12.9519 24.0827 12.9595 25.4117 12.9727L26.8429 12.9869L25.9511 17.7086C25.0116 22.6834 24.827 23.7541 24.7366 24.7512C24.6568 25.6313 24.6675 26.9351 24.7591 27.5001C25.1463 29.8876 26.739 31.3826 29.4274 31.8819C29.7035 31.9333 30.325 31.9768 31.0131 31.9932C32.6246 32.0316 34.0402 31.9069 35.2 31.6244C35.618 31.5226 35.6671 31.4975 35.6932 31.3725C35.749 31.105 36.6826 25.3106 36.6827 25.2314C36.6828 25.1634 36.608 25.1566 36.1894 25.1863C35.4094 25.2417 34.6491 25.2364 34.3076 25.1733C33.3478 24.9958 32.8954 24.3681 32.8954 23.2139C32.8954 22.3909 33.0154 21.6548 33.8752 17.2018L34.6891 12.9869L37.0687 12.973L39.4484 12.9592L39.4783 12.813C39.4947 12.7326 39.7369 11.4303 40.0164 9.91914C40.296 8.40792 40.5382 7.10569 40.5549 7.02529L40.585 6.87915L38.2197 6.86523L35.8545 6.85136L36.4715 3.42345C36.9856 0.567744 37.0747 -0.00371656 37.0057 1.81287e-05C36.9601 0.0025257 35.1225 0.426893 32.9221 0.943027ZM51.2187 6.40501C44.5258 6.98004 39.5189 12.3988 38.6297 20.0295C38.1595 24.0653 39.004 27.1315 41.1875 29.3157C43.0446 31.1735 45.4472 32.0218 48.6215 31.9403C50.6818 31.8874 52.2947 31.5032 54.0459 30.648C58.2219 28.6086 61.0626 24.3728 61.8291 19.0424C62.0212 17.7061 62.0802 15.8497 61.9642 14.7855C61.7953 13.234 61.247 11.602 60.4997 10.426C58.6291 7.48257 55.3273 6.05203 51.2187 6.40501ZM72.9075 6.39823C70.1907 6.62621 67.8451 7.53048 66.1669 8.99672C64.8799 10.1212 63.9789 11.6596 63.6111 13.3604C63.4745 13.992 63.4203 15.4656 63.5125 16.041C63.709 17.2678 64.2973 18.3982 65.2794 19.436C66.0779 20.28 66.8021 20.8199 68.3455 21.7221C70.1706 22.7889 70.7387 23.4007 70.7369 24.2977C70.7337 25.9157 68.7659 26.4037 65.5947 25.5732C64.8173 25.3696 63.7591 24.9901 63.0177 24.6492C62.7627 24.5319 62.5536 24.4528 62.5531 24.4735C62.5525 24.4942 62.1353 25.7776 61.6258 27.3256L60.6996 30.14L61.0854 30.3805C62.0413 30.9764 63.6032 31.4792 65.3279 31.7461C66.3558 31.9052 68.557 31.9444 69.7021 31.8239C72.7102 31.5075 75.0092 30.5442 76.6418 28.916C77.7898 27.771 78.417 26.5963 78.7715 24.9266C78.9296 24.1825 78.9729 22.7617 78.8576 22.1022C78.591 20.5772 77.6585 19.1596 76.0841 17.8857C75.5666 17.4669 74.1677 16.5367 73.5694 16.2135C71.9846 15.3574 71.2948 14.5724 71.4581 13.8108C71.5787 13.2482 71.8706 12.8971 72.4197 12.6538C72.8904 12.4453 73.3371 12.3753 74.2027 12.3743C75.4504 12.3728 76.685 12.6005 77.8147 13.0404C78.0909 13.1479 78.3639 13.2399 78.4212 13.2448C78.5137 13.2527 78.6206 12.9458 79.3657 10.5327C79.8277 9.03615 80.2208 7.74555 80.2392 7.66466C80.2708 7.52557 80.253 7.50882 79.9082 7.35266C79.0092 6.94563 77.776 6.63656 76.4233 6.47938C75.5498 6.37785 73.6678 6.33442 72.9075 6.39823ZM5.45078 6.94472C5.41872 7.03777 4.1969 13.4632 4.1969 13.5389C4.1969 13.5849 5.26232 13.6005 8.41542 13.6005C10.7356 13.6005 12.626 13.6189 12.6162 13.6415C12.6064 13.664 12.2744 13.9804 11.8783 14.3447C10.7731 15.3609 8.89386 17.2638 8.02917 18.2422C7.60125 18.7263 5.86419 20.7648 4.169 22.7722L1.0869 26.4219L0.668689 28.9077C0.438674 30.2749 0.250267 31.4236 0.25 31.4603C0.249627 31.5134 2.16251 31.527 9.63788 31.527C14.8015 31.527 19.0262 31.5139 19.0262 31.4979C19.0262 31.4571 20.2531 25.0181 20.2888 24.8712L20.3181 24.7512H15.6136C13.0262 24.7512 10.9172 24.732 10.927 24.7086C10.9368 24.6851 11.305 24.3412 11.7452 23.9443C13.6221 22.2524 14.4868 21.3068 18.8382 16.1881C20.5345 14.1927 21.9819 12.4956 22.0546 12.4168C22.1751 12.2863 22.2268 12.0423 22.6315 9.6958C22.876 8.27806 23.0857 7.06413 23.0974 6.99808L23.1189 6.87803H14.2963C7.2861 6.87803 5.46908 6.89174 5.45078 6.94472ZM50.9787 12.5877C49.6008 12.8272 48.4124 14.2801 47.5755 16.7483C46.9349 18.6371 46.6144 20.6209 46.6721 22.3392C46.7045 23.3038 46.8106 23.7986 47.1204 24.4304C47.7347 25.683 49.1182 26.1142 50.4186 25.4584C50.7499 25.2913 51.5199 24.5248 51.8256 24.0576C52.9994 22.2638 53.8579 18.9079 53.8729 16.0547C53.877 15.2681 53.8597 15.0477 53.7631 14.6554C53.4647 13.4439 52.7767 12.7376 51.7505 12.5893C51.3351 12.5292 51.3153 12.5292 50.9787 12.5877Z" fill="black"/>
</svg>
