<svg width="129" height="32" viewBox="0 0 129 32" fill="none" xmlns="http://www.w3.org/2000/svg">
<path fill-rule="evenodd" clip-rule="evenodd" d="M11.1261 0.0127496C10.5077 0.0799458 9.74749 0.223205 9.17325 0.380833C5.29216 1.44582 2.18974 4.55218 1.12609 8.43818C0.737457 9.8579 0.750047 9.60477 0.750047 16.0021C0.750047 22.3995 0.737457 22.1464 1.12609 23.5661C2.18974 27.4521 5.29216 30.5584 9.17325 31.6234C10.5912 32.0126 10.3384 32 16.7276 32C23.1169 32 22.8641 32.0126 24.282 31.6234C28.1631 30.5584 31.2655 27.4521 32.3292 23.5661C32.7178 22.1464 32.7052 22.3995 32.7052 16.0021C32.7052 10.6829 32.698 10.2172 32.6075 9.67896C32.2889 7.78417 31.5529 6.07093 30.3906 4.51853C30.0167 4.01899 29.0999 3.0635 28.5711 2.62208C27.0677 1.36709 25.2467 0.519125 23.2094 0.125402C22.6362 0.0146191 22.4909 0.0117347 16.9677 0.0022268C13.8575 -0.00316812 11.2288 0.00158582 11.1261 0.0127496ZM96.0288 4.21561C95.3989 4.42526 94.924 4.83832 94.652 5.41307C94.4976 5.73954 94.4817 5.82057 94.4817 6.28171C94.4817 6.74706 94.4964 6.82013 94.6543 7.14126C94.8639 7.56762 95.2763 7.99345 95.6628 8.1828C96.277 8.48369 97.1744 8.47648 97.8159 8.1656C98.1821 7.98816 98.6605 7.51372 98.8281 7.16193C99.0012 6.79855 99.0438 5.99097 98.911 5.59073C98.7327 5.053 98.1989 4.51767 97.6025 4.27848C97.2886 4.15258 96.3329 4.11439 96.0288 4.21561ZM11.1795 12.1283V17.9655L10.3659 17.9928C9.44191 18.0238 9.08091 18.1078 8.37608 18.4556C7.76504 18.7571 7.29024 19.2072 7.03279 19.729C6.84212 20.1155 6.83172 20.1631 6.83311 20.6467C6.83439 21.0921 6.85381 21.1988 6.98643 21.489C7.35389 22.2932 8.12961 22.7146 9.47936 22.8435C10.8259 22.972 11.7456 22.6493 12.6795 21.7204C13.1122 21.2901 13.2264 21.1389 13.4082 20.7561C13.5268 20.5064 13.65 20.1747 13.682 20.019C13.7206 19.8311 13.7402 18.5287 13.7402 16.1471V12.5583L14.8177 13.6793C15.4103 14.2958 16.2381 15.1488 16.6573 15.5748L17.4195 16.3493L19.3408 14.4267L21.2622 12.504V19.2474V25.9908H22.5425H23.8229V16.1492V6.30761L20.6225 9.51166L17.4222 12.7157L17.2969 12.5829C16.9856 12.2529 13.0835 8.23296 12.1825 7.31411L11.1795 6.29116V12.1283ZM44.8667 10.7913C43.5415 10.9976 42.462 11.7418 41.7157 12.9639L41.5076 13.3047L41.4932 12.1963L41.4787 11.0879H39.7994H38.12V18.1922V25.2964H39.9051H41.6901L41.7072 20.9564L41.7241 16.6164L41.8462 16.2166C42.2016 15.053 42.9759 14.2785 44.0416 14.0208C44.4599 13.9196 45.3865 13.9297 45.7487 14.0394C46.5627 14.286 47.0522 14.9374 47.2408 16.0253C47.2756 16.2258 47.2958 17.9879 47.2958 20.82V25.2978L49.0696 25.2837L50.8434 25.2697L50.8711 20.9697C50.8984 16.7364 50.9007 16.6634 51.0169 16.2509C51.4114 14.851 52.2923 14.0624 53.5908 13.9465C54.3753 13.8764 55.1227 14.087 55.5822 14.5075C55.9182 14.815 56.1628 15.2489 56.3248 15.8251C56.4408 16.2377 56.4423 16.2939 56.4591 20.7701L56.4761 25.2978L58.2476 25.2837L60.0192 25.2697L60.0188 20.5157C60.0183 15.7822 60.0178 15.7588 59.895 15.076C59.5798 13.3235 58.9239 12.19 57.807 11.4672C57.0973 11.0079 56.3033 10.7794 55.2446 10.7298C53.1701 10.6327 51.6101 11.3534 50.5576 12.8952L50.2901 13.2871L50.1724 13.0555C49.7116 12.1481 48.9887 11.4674 48.1076 11.111C47.2027 10.745 45.9548 10.622 44.8667 10.7913ZM108.521 10.7668C104.742 11.2442 102.161 13.8601 101.875 17.5018C101.695 19.8003 102.367 21.7913 103.849 23.3429C104.861 24.4034 106.189 25.1177 107.792 25.4639C108.262 25.5655 108.519 25.5853 109.392 25.5875C110.292 25.5898 110.507 25.5734 110.984 25.4664C112.205 25.1926 113.403 24.6571 114.192 24.0326C114.432 23.8431 114.62 23.6666 114.611 23.6402C114.601 23.6139 114.074 23.03 113.438 22.3427L112.282 21.0931L111.906 21.4554C110.027 23.2639 106.699 22.3948 105.711 19.8378C105.482 19.2445 105.372 18.5449 105.41 17.9251C105.453 17.2416 105.563 16.8288 105.883 16.1645C106.119 15.6721 106.209 15.5482 106.638 15.12C107.047 14.7122 107.206 14.5943 107.632 14.3848C108.181 14.1146 108.607 13.997 109.232 13.9435C110.137 13.8661 111.07 14.2664 111.927 15.0996L112.195 15.3599L113.439 14.1132L114.684 12.8666L114.285 12.5052C113.348 11.6556 112.348 11.1599 110.981 10.8676C110.417 10.7469 109.105 10.6932 108.521 10.7668ZM121.609 10.7693C119.67 11.0053 118.098 11.6658 116.985 12.7127L116.674 13.0049L117.612 13.9467L118.55 14.8885L118.839 14.6392C119.429 14.1305 120.321 13.7049 121.207 13.5092C121.748 13.3898 122.808 13.391 123.343 13.5118C124.802 13.8411 125.549 14.7494 125.556 16.2024L125.557 16.4295L124.37 16.4299C119.946 16.4316 117.437 17.2773 116.332 19.1391C115.913 19.8457 115.766 20.5253 115.807 21.5661C115.839 22.3851 115.991 22.8972 116.378 23.4873C117.088 24.5702 118.298 25.2871 119.841 25.5401C120.63 25.6694 121.815 25.6253 122.522 25.4403C123.703 25.1314 124.694 24.4694 125.294 23.5888C125.394 23.4411 125.495 23.3202 125.517 23.3201C125.539 23.3201 125.557 23.7651 125.557 24.309V25.298L127.144 25.2838L128.731 25.2697L128.746 21.1834C128.764 16.6449 128.724 15.4906 128.522 14.6133C128.229 13.3374 127.635 12.3973 126.739 11.7882C126.063 11.3294 125.246 11.0073 124.339 10.8429C123.789 10.7434 122.179 10.6999 121.609 10.7693ZM63.8465 16.0155C63.8677 21.482 63.862 21.3854 64.2308 22.4794C64.7582 24.044 65.9618 25.1267 67.5873 25.4986C68.1642 25.6306 69.8571 25.625 70.3953 25.4893C71.572 25.1926 72.4811 24.4784 73.1969 23.288L73.3827 22.9791V24.1377V25.2964H75.0632H76.7436V18.1922V11.0879H74.9861H73.2286L73.2092 15.3211C73.1901 19.4638 73.1872 19.5636 73.0738 19.9944C72.6686 21.5326 71.5698 22.4073 70.0378 22.411C69.2786 22.4129 68.7424 22.2124 68.3163 21.7674C67.995 21.4319 67.8203 21.1063 67.6549 20.5347C67.4372 19.7825 67.4082 19.13 67.408 14.9739L67.4078 11.0879H65.6176H63.8274L63.8465 16.0155ZM80.1045 12.5034V13.9189H83.6788C85.6447 13.9189 87.2531 13.9376 87.2531 13.9606C87.2531 13.9834 85.5617 15.7922 83.4943 17.98L79.7355 21.9579L79.7333 23.6273L79.7311 25.2968L85.8261 25.2832L91.921 25.2697L91.9352 23.8411L91.9495 22.4126L87.9662 22.3989L83.9829 22.3852L87.7784 18.3524L91.5739 14.3196L91.5741 12.7037L91.5743 11.0879H85.8394H80.1045V12.5034ZM94.9483 18.1788L94.9618 25.2697L96.7356 25.2837L98.5094 25.2978V18.1928V11.0879H96.7221H94.9348L94.9483 18.1788ZM122.785 18.9995C121.5 19.1136 120.397 19.4782 119.808 19.9833C119.36 20.3665 119.21 21.1601 119.471 21.7557C119.821 22.5529 120.798 22.9902 122.089 22.9272C123.187 22.8736 123.937 22.5939 124.492 22.0302C125.046 21.4687 125.279 20.8115 125.328 19.6744L125.359 18.94L124.324 18.9473C123.755 18.9513 123.062 18.9748 122.785 18.9995Z" fill="black"/>
</svg>
