<svg width="139" height="32" viewBox="0 0 139 32" fill="none" xmlns="http://www.w3.org/2000/svg">
<path fill-rule="evenodd" clip-rule="evenodd" d="M14.8859 0.0203073C14.7829 0.031892 14.436 0.0666993 14.115 0.0976628C9.74814 0.518714 5.87623 2.53033 3.48455 5.62076C1.73319 7.88377 0.74137 10.4551 0.32354 13.8154C0.213653 14.6991 0.230344 17.5557 0.350718 18.472C0.850936 22.2801 2.32827 25.3558 4.80689 27.7497C7.15968 30.022 10.1873 31.3993 13.9229 31.8969C14.9572 32.0346 17.7603 32.0343 18.7913 31.8964C22.5924 31.3879 25.582 29.9985 27.9415 27.644C30.2867 25.3038 31.6907 22.3083 32.196 18.5667C32.3115 17.7113 32.3568 15.4225 32.2779 14.4281C31.8849 9.47764 29.9469 5.63491 26.5466 3.06408C24.4723 1.49577 21.9614 0.529017 18.8983 0.119284C18.2661 0.034668 15.3885 -0.0362812 14.8859 0.0203073ZM15.0464 2.93045C10.7038 3.23956 7.31066 5.05733 5.2412 8.18326C3.25477 11.1838 2.59063 15.9263 3.59652 19.9281C4.15966 22.1683 5.17502 23.9972 6.69558 25.5099C7.28583 26.0971 8.208 26.8373 8.67692 27.1003L8.89397 27.222L8.89557 21.1193L8.89713 15.0166L10.3267 14.2303L11.7562 13.444L11.7697 20.9677L11.7833 28.4915L11.9837 28.5472C12.7435 28.7583 14.2415 29.0303 14.6447 29.0303H14.8321L14.8457 17.7207L14.8591 6.41124L16.2769 7.19862L17.6946 7.98605L17.7081 18.5354L17.7216 29.0849L17.9221 29.0589C18.0324 29.0447 18.3393 29.0058 18.6041 28.9726C19.1784 28.9004 19.9461 28.7493 20.5167 28.5961L20.9313 28.4847V20.4827C20.9313 16.0817 20.9448 12.4808 20.9613 12.4808C20.9777 12.4808 21.6277 12.8338 22.4058 13.2651L23.8203 14.0495V20.6056C23.8203 24.2115 23.8401 27.1618 23.8643 27.1618C23.8884 27.1618 24.0871 27.0392 24.3056 26.8893C26.02 25.7138 27.3284 24.1382 28.207 22.1911C30.0898 18.0186 29.7524 11.9656 27.4321 8.29003C26.2872 6.47637 24.8499 5.19848 22.9003 4.26082C20.664 3.18532 17.9424 2.72433 15.0464 2.93045ZM103.769 3.80096C103.181 3.94318 102.666 4.37373 102.389 4.95344C102.236 5.27327 102.224 5.34438 102.224 5.86211C102.224 6.38759 102.235 6.44642 102.397 6.77527C102.606 7.19857 102.988 7.57349 103.416 7.77326C103.687 7.89994 103.786 7.91633 104.283 7.91633C104.804 7.91633 104.871 7.90384 105.205 7.74625C106.523 7.12313 106.819 5.39627 105.784 4.36364C105.247 3.82829 104.508 3.6219 103.769 3.80096ZM71.0602 14.0823V24.1722H72.6919H74.3236V14.0823V3.9925H72.6919H71.0602V14.0823ZM87.8954 4.02731C87.8754 4.04733 87.859 5.86382 87.859 8.064V12.0643L87.6156 11.7412C86.9511 10.8592 85.7672 10.3375 84.2432 10.2552C81.3372 10.0984 78.8041 11.8856 77.8352 14.7764C77.5438 15.646 77.46 16.215 77.458 17.3389C77.4554 18.8026 77.6467 19.7417 78.1713 20.8406C79.117 22.8216 80.722 24.0496 82.8495 24.4194C83.5878 24.5478 84.7868 24.497 85.4139 24.3109C86.4096 24.0153 87.3324 23.3913 87.7785 22.7119C87.9155 22.5033 87.945 22.5889 87.9872 23.315C88.0067 23.651 88.0366 23.9813 88.0536 24.049L88.0846 24.1722H89.6354H91.1862L91.1493 23.8919C91.1289 23.7378 91.0965 19.2033 91.0773 13.8154L91.0422 4.0192L89.487 4.00505C88.6317 3.99731 87.9155 4.00729 87.8954 4.02731ZM95.2775 4.02811C95.2579 4.04765 95.2419 8.58808 95.2419 14.118V24.1722H96.8736H98.5053V14.0823V3.9925H96.9093C96.0314 3.9925 95.2971 4.00852 95.2775 4.02811ZM59.9368 10.2395C58.3013 10.4679 56.9234 11.1504 55.8493 12.264C54.9212 13.2262 54.3198 14.3972 54.0106 15.8441C53.8733 16.4867 53.8739 18.2307 54.0118 18.9118C54.3119 20.3951 54.9254 21.5733 55.9198 22.5761C56.9074 23.572 58.0736 24.1837 59.5378 24.4739C60.2534 24.6157 61.7039 24.6023 62.4326 24.4472C65.3527 23.8256 67.413 21.6314 67.8789 18.6468C68.0114 17.7986 67.9647 16.3586 67.7795 15.5771C67.4669 14.258 66.8944 13.1945 65.9971 12.2656C65.0267 11.2611 63.8383 10.6233 62.3665 10.3169C61.8676 10.2131 60.4496 10.1679 59.9368 10.2395ZM130.74 10.2447C128.551 10.5628 126.672 11.9911 125.689 14.0838C124.743 16.097 124.785 18.8713 125.791 20.8774C126.565 22.421 127.908 23.6132 129.498 24.1672C132.5 25.2137 135.753 24.2805 137.324 21.9219C137.571 21.5517 138.008 20.6754 138.069 20.4277C138.102 20.2936 138.087 20.2812 137.765 20.1771C136.78 19.8589 135.381 19.4209 135.349 19.4209C135.329 19.4209 135.313 19.4542 135.313 19.4948C135.313 19.657 134.875 20.4262 134.621 20.7097C134.265 21.1073 133.841 21.3812 133.282 21.5745C132.903 21.7056 132.716 21.7365 132.183 21.7563C131.396 21.7855 130.918 21.6958 130.311 21.4052C129.176 20.862 128.471 19.8615 128.282 18.5267L128.25 18.2998H133.196C137.094 18.2998 138.151 18.2857 138.185 18.2331C138.209 18.1964 138.237 17.8068 138.247 17.3673C138.329 13.8245 136.668 11.2719 133.749 10.456C132.903 10.2195 131.562 10.1253 130.74 10.2447ZM116.16 10.3181C115.083 10.5565 114.1 11.1684 113.52 11.9631L113.244 12.3395L113.23 11.4759L113.215 10.6123H111.638H110.061V17.3922V24.1722H111.691H113.321L113.337 19.888C113.352 15.9968 113.362 15.5745 113.447 15.2835C113.846 13.9188 114.805 13.1732 116.158 13.1756C117.313 13.1776 118.161 13.6531 118.572 14.5289C118.887 15.1995 118.887 15.2009 118.888 19.888L118.889 24.1722H120.522H122.156L122.137 19.3275C122.12 14.9933 122.108 14.4433 122.027 14.109C121.536 12.0901 120.528 10.9391 118.797 10.4182C118.384 10.294 118.216 10.2746 117.417 10.259C116.764 10.2462 116.41 10.2629 116.16 10.3181ZM42.9998 10.4061C40.1181 10.7694 37.9789 13.0405 37.6195 16.1182C37.4981 17.1582 37.6438 18.5038 37.9784 19.4334C38.6273 21.2355 39.9429 22.5754 41.6676 23.1905C41.9489 23.2908 42.3998 23.412 42.6696 23.4599C43.2475 23.5624 44.3464 23.5741 44.8455 23.4831C46.0736 23.2593 47.0271 22.6853 47.696 21.7672C47.7882 21.6405 47.7905 21.6709 47.7677 22.7308C47.7427 23.8995 47.6997 24.2286 47.4876 24.8765C47.2598 25.5728 46.773 26.1911 46.1822 26.5348C45.5986 26.8742 44.4599 27.1011 43.686 27.0321C42.5768 26.9332 41.6955 26.4488 41.1346 25.6298C40.8865 25.2675 40.5677 24.4838 40.5663 24.2327C40.5657 24.1276 40.5453 24.1119 40.4452 24.1393C40.379 24.1574 39.7049 24.3338 38.9472 24.5314C37.3603 24.9453 37.4844 24.8417 37.6804 25.5886C38.2337 27.6965 40.1376 29.3061 42.618 29.763C43.3048 29.8896 44.892 29.8852 45.6213 29.7548C48.5103 29.2383 50.2095 27.5826 50.852 24.6581C50.9626 24.1547 50.965 24.0246 50.9832 17.3789L51.0018 10.6123H49.4216H47.8415V11.419V12.2256L47.6023 11.9014C47.2911 11.4796 46.8601 11.1425 46.2632 10.8543C45.3481 10.4124 44.2004 10.2547 42.9998 10.4061ZM102.678 17.3922V24.1722H104.283H105.888V17.3922V10.6123H104.283H102.678V17.3922ZM130.899 12.9922C129.606 13.2787 128.576 14.3658 128.384 15.646L128.346 15.8975H131.672H134.998L134.964 15.6439C134.785 14.3165 133.964 13.3652 132.718 13.0399C132.24 12.9152 131.352 12.8919 130.899 12.9922ZM60.2266 13.1978C59.4303 13.3549 58.8797 13.6423 58.321 14.1926C57.9739 14.5344 57.8697 14.682 57.6423 15.1535C57.2785 15.908 57.198 16.251 57.1665 17.1787C57.1449 17.8152 57.159 18.0434 57.2459 18.4626C57.5228 19.7994 58.1986 20.7436 59.249 21.2609C60.3532 21.8048 61.4939 21.8034 62.6037 21.2567C63.4835 20.8233 64.097 20.0864 64.4243 19.07C64.9482 17.4431 64.6687 15.5613 63.7333 14.4183C63.461 14.0856 62.9862 13.7113 62.5726 13.5033C61.9597 13.1951 60.9234 13.0602 60.2266 13.1978ZM83.8733 13.156C82.4971 13.3766 81.4363 14.2594 80.9824 15.5619C80.619 16.6047 80.6015 18.0208 80.9389 19.0739C81.3012 20.2044 82.1052 21.0857 83.0843 21.4254C84.3611 21.8686 85.6696 21.6176 86.597 20.752C87.8034 19.6259 88.2396 17.4745 87.6408 15.6038C87.2547 14.3973 86.4127 13.5549 85.291 13.2529C84.9811 13.1695 84.1455 13.1123 83.8733 13.156ZM43.467 13.278C42.8355 13.4328 42.4132 13.6751 41.9298 14.1602C41.2909 14.8012 40.9832 15.5002 40.8886 16.5256C40.6967 18.6052 41.7382 20.274 43.4794 20.6769C43.9531 20.7866 44.7751 20.7865 45.2501 20.6768C46.338 20.4255 47.175 19.6679 47.5747 18.5725C47.7884 17.987 47.8613 17.448 47.8264 16.7116C47.7732 15.5858 47.4609 14.823 46.7693 14.1293C46.3175 13.676 45.8289 13.4014 45.2192 13.258C44.7572 13.1493 43.9544 13.1585 43.467 13.278Z" fill="black"/>
</svg>
