<svg width="144" height="32" viewBox="0 0 144 32" fill="none" xmlns="http://www.w3.org/2000/svg">
<path fill-rule="evenodd" clip-rule="evenodd" d="M5.98736 0.055236C5.54912 0.109782 4.89517 0.291227 4.54473 0.455493C3.65852 0.870797 3.22981 1.49168 2.90227 2.83434C2.81898 3.17579 2.79571 3.93806 2.7587 7.53661C2.7195 11.3551 2.70244 11.873 2.60497 12.2075C2.35295 13.0726 1.81033 13.7474 1.09485 14.0858L0.75 14.2489L0.751066 15.8301L0.752133 17.4114L1.11172 17.5658C1.55436 17.7559 2.09202 18.2499 2.29762 18.6555C2.38236 18.8227 2.51138 19.1754 2.58427 19.4394C2.71128 19.8992 2.71856 20.1036 2.75857 24.3394C2.80261 28.999 2.80411 29.0226 3.10556 29.9298C3.23659 30.3242 3.61719 30.9004 3.93538 31.1863C4.27095 31.4877 4.59968 31.652 5.19272 31.8144C5.61428 31.9299 5.89277 31.9495 7.44567 31.9731L9.21759 32V30.4355V28.871L8.51196 28.8381C7.60392 28.7956 7.19252 28.65 6.83588 28.245C6.36702 27.7126 6.37643 27.8039 6.3292 23.3362C6.2794 18.6296 6.27902 18.6265 5.66133 17.6819C5.35938 17.2201 5.05348 16.9413 4.2399 16.3864L3.69829 16.0169L4.48778 15.4322C5.37374 14.7758 5.71602 14.4261 5.93555 13.9527C6.273 13.2251 6.28335 13.0861 6.327 8.6965C6.3669 4.68434 6.36966 4.61581 6.50633 4.2738C6.67317 3.85624 7.00516 3.51654 7.42936 3.32939C7.67398 3.22149 7.90348 3.18469 8.47997 3.16099L9.21759 3.13058V1.57181V0.0129783L7.69656 0.0223829C6.85996 0.0275241 6.09085 0.0423204 5.98736 0.055236ZM29.9161 1.56529V3.13058L30.6538 3.16099C31.2302 3.18469 31.4597 3.22149 31.7044 3.32939C32.1286 3.51654 32.4606 3.85624 32.6274 4.2738C32.7641 4.61581 32.7668 4.68434 32.8067 8.6965C32.8504 13.0861 32.8607 13.2251 33.1982 13.9527C33.4177 14.4261 33.76 14.7758 34.6459 15.4322L35.4354 16.0169L34.8938 16.3864C34.0802 16.9413 33.7743 17.2201 33.4724 17.6819C32.8547 18.6265 32.8543 18.6296 32.8045 23.3362C32.7573 27.8039 32.7667 27.7126 32.2978 28.245C31.9412 28.65 31.5298 28.7956 30.6218 28.8381L29.9161 28.871V30.4355V32L31.6881 31.9731C33.241 31.9495 33.5194 31.9299 33.941 31.8144C34.534 31.652 34.8628 31.4877 35.1983 31.1863C35.5165 30.9004 35.8971 30.3242 36.0282 29.9298C36.3296 29.0226 36.3311 28.999 36.3751 24.3394C36.4152 20.1036 36.4224 19.8992 36.5495 19.4394C36.6223 19.1754 36.7514 18.8227 36.8361 18.6555C37.0417 18.2499 37.5794 17.7559 38.022 17.5658L38.3816 17.4114L38.3827 15.8301L38.3837 14.2489L38.0389 14.0858C37.3234 13.7474 36.7808 13.0726 36.5288 12.2075C36.4313 11.873 36.4142 11.3551 36.375 7.53661C36.338 3.93806 36.3147 3.17579 36.2315 2.83434C35.8367 1.21638 35.2664 0.580824 33.8568 0.18853C33.4612 0.0784338 33.1552 0.0564273 31.6567 0.0302827L29.9161 0V1.56529ZM82.227 7.99806V12.2213L81.7691 11.7755C81.2702 11.2898 80.8238 10.998 80.247 10.7804C79.9166 10.6558 79.759 10.6401 78.84 10.6401C77.6717 10.6401 77.2596 10.729 76.4251 11.1611C75.899 11.4336 74.968 12.3329 74.6481 12.8776C74.1211 13.7753 73.7271 15.0249 73.5376 16.3994C73.4028 17.3775 73.348 20.1859 73.4404 21.3827C73.748 25.3704 75.1631 27.5981 77.7244 28.1268C78.3317 28.2522 79.3751 28.2539 79.8998 28.1302C80.6891 27.9442 81.5415 27.376 82.1452 26.6333L82.4465 26.2626L82.5364 27.0878L82.6262 27.9131H84.6847H86.7431V15.8439V3.77479H84.485H82.227V7.99806ZM132.092 15.8439V27.9131H132.938H133.785L133.791 27.3645C133.795 27.0628 133.816 26.5782 133.838 26.2877L133.879 25.7594L134.124 26.1309C134.626 26.8917 135.426 27.541 136.295 27.8918C137.409 28.3416 139.194 28.3416 140.308 27.8918C142.283 27.0943 143.368 25.1917 143.697 21.9483C143.746 21.4649 143.761 20.4389 143.742 18.9075C143.717 16.9306 143.694 16.4875 143.581 15.8439C143.142 13.3291 142.21 11.8109 140.653 11.072C139.951 10.7384 139.562 10.6573 138.507 10.6249C137.751 10.6015 137.45 10.6179 137.064 10.7033C135.863 10.969 134.858 11.681 134.152 12.7658L133.911 13.1361V8.45543V3.77479H133.001H132.092V15.8439ZM48.5762 4.80647C47.4417 4.98478 46.5319 5.3219 45.6701 5.88329C43.9554 7.00042 42.7545 8.90685 42.2787 11.2671C42.0099 12.6008 41.9903 12.9534 41.9903 16.4709C41.9903 19.382 42.0061 19.9723 42.1031 20.6822C42.5618 24.0403 43.9552 26.3102 46.2533 27.4428C47.408 28.0119 48.4417 28.2256 50.0422 28.2262C52.3305 28.2271 54.158 27.6444 55.442 26.5045C56.9112 25.2002 57.6945 23.3852 57.9254 20.75L57.968 20.2641H55.6437H53.3195L53.2886 20.5305C53.1518 21.7106 53.1135 21.9705 53.0274 22.3005C52.7675 23.2964 52.2865 23.8947 51.5444 24.1452C50.941 24.3488 50.1409 24.4259 49.5061 24.3414C47.68 24.0986 46.9758 23.091 46.722 20.3581C46.6145 19.2011 46.68 12.5539 46.8053 11.894C47.1936 9.85069 47.8292 8.97299 49.1479 8.65926C49.6126 8.54879 50.7615 8.56778 51.2419 8.69399C52.5717 9.04321 53.0587 9.84536 53.2585 12.0153L53.331 12.8031H55.6513H57.9716L57.9309 12.3172C57.8 10.754 57.3556 9.22409 56.6994 8.07774C55.6076 6.17032 53.9095 5.09883 51.4726 4.77951C50.8166 4.69355 49.199 4.70866 48.5762 4.80647ZM104.995 16.4709V27.9131H110.609H116.223V27.0667V26.2203H111.519H106.814V15.6245V5.02873H105.905H104.995V16.4709ZM24.3652 5.18027C24.2617 5.22648 24.1012 5.34529 24.0085 5.44429C23.3322 6.16693 23.8417 7.34852 24.8295 7.34852C25.8292 7.34852 26.3438 6.17232 25.6626 5.44422C25.3467 5.10641 24.7863 4.99243 24.3652 5.18027ZM18.3397 5.58611C17.694 5.87928 17.3079 6.4685 17.3102 7.15704C17.3164 9.00748 19.8083 9.51526 20.5773 7.82282C20.7323 7.48181 20.7323 6.83904 20.5773 6.49803C20.284 5.85263 19.6946 5.46667 19.0057 5.46899C18.7426 5.46987 18.503 5.512 18.3397 5.58611ZM12.4016 6.69427C11.9228 6.95397 11.9306 7.75567 12.4144 8.00577C12.7903 8.20007 13.2727 8.0701 13.4503 7.72677C13.8078 7.03572 13.0846 6.3238 12.4016 6.69427ZM14.2123 9.75683C13.6776 9.98097 13.302 10.3251 13.0437 10.8275C12.8377 11.2281 12.8242 11.2916 12.8242 11.8564C12.8242 12.3777 12.8466 12.5062 12.9916 12.8154C13.2053 13.2711 13.6419 13.7075 14.0977 13.921C14.4063 14.0656 14.5361 14.0884 15.0508 14.0884C15.5655 14.0884 15.6954 14.0656 16.004 13.921C16.4598 13.7075 16.8964 13.2711 17.11 12.8154C17.2546 12.507 17.2775 12.3772 17.2775 11.8627C17.2775 11.3482 17.2546 11.2184 17.11 10.91C16.8961 10.4537 16.4592 10.0174 16.004 9.80536C15.4821 9.56228 14.7253 9.54178 14.2123 9.75683ZM23.525 9.70097C22.4515 10.0018 21.5423 10.9648 21.3194 12.0371C21.2166 12.5316 21.2762 13.3749 21.4455 13.8204C21.7376 14.5893 22.4687 15.3225 23.2534 15.6337C23.5565 15.7539 23.7298 15.776 24.3652 15.776C25.0005 15.776 25.1738 15.7539 25.4769 15.6337C26.2576 15.3241 26.9813 14.6007 27.2909 13.8204C27.4112 13.5174 27.4334 13.3442 27.4334 12.7091C27.4334 12.074 27.4112 11.9008 27.2909 11.5978C26.98 10.8142 26.2483 10.0848 25.4769 9.78943C25.0053 9.60887 24.0139 9.56391 23.525 9.70097ZM63.9779 10.7384C61.5453 11.2633 59.8352 13.0067 59.1144 15.6962C58.8267 16.7694 58.7478 17.5711 58.7478 19.4177C58.7478 20.6689 58.7751 21.2986 58.8525 21.8315C59.2623 24.6541 60.4864 26.581 62.5007 27.5744C63.352 27.9942 64.1192 28.1698 65.2792 28.2102C67.5569 28.2894 69.1484 27.7224 70.4281 26.3758C72.015 24.706 72.6761 22.3034 72.5413 18.6967C72.4478 16.194 72.0418 14.7047 71.0516 13.2303C70.2668 12.0617 68.9846 11.1701 67.5499 10.7952C66.754 10.5871 64.821 10.5565 63.9779 10.7384ZM93.6008 10.7016C92.3058 10.9365 91.2468 11.4957 90.3767 12.4043C89.2655 13.5646 88.6502 15.0279 88.3636 17.1919C88.2566 17.9999 88.2555 21.2433 88.362 21.9882C88.6315 23.874 89.3085 25.34 90.3907 26.3815C91.4603 27.411 92.6665 27.9614 94.3045 28.1675C95.052 28.2616 96.7062 28.2105 97.3119 28.0746C98.7976 27.7414 100.094 27.0599 100.919 26.1785C101.126 25.9576 101.295 25.7471 101.295 25.7109C101.295 25.637 99.6054 23.0227 99.5577 23.0227C99.541 23.0227 99.3688 23.1639 99.1751 23.3365C97.8982 24.4741 95.6395 24.8591 94.2675 24.1729C94.0071 24.0427 93.745 23.8518 93.6092 23.6934C93.1689 23.1799 92.8516 22.2822 92.7811 21.3504L92.7463 20.8911H97.1865H101.627L101.589 19.1199C101.55 17.3146 101.466 16.4377 101.241 15.4906C100.603 12.8134 99.0908 11.2179 96.7359 10.7382C95.9867 10.5856 94.346 10.5664 93.6008 10.7016ZM122.119 10.7042C119.815 11.1767 118.126 12.981 117.937 15.17L117.898 15.6245H118.781H119.665L119.702 15.3267C119.769 14.8028 119.926 14.2767 120.117 13.943C120.504 13.2655 121.322 12.6541 122.181 12.3996C122.676 12.2531 123.572 12.2076 124.187 12.2976C125.539 12.4952 126.312 13.0595 126.702 14.1324C126.835 14.5001 126.847 14.6472 126.871 16.2672L126.896 18.007L125.056 18.0074C123.119 18.0077 122.426 18.0694 121.498 18.3234C119.718 18.8108 118.371 20.0319 117.845 21.6347C117.663 22.1865 117.644 22.3269 117.617 23.2505C117.573 24.7882 117.807 25.6996 118.478 26.6081C118.995 27.3077 119.774 27.8202 120.708 28.0743C121.267 28.2267 122.654 28.2645 123.288 28.1445C124.597 27.897 125.863 27.1004 126.636 26.0371L126.917 25.6507L126.962 26.1393C126.986 26.4079 127.054 26.917 127.112 27.2705L127.217 27.9131H128.18C128.71 27.9131 129.144 27.8913 129.144 27.8646C129.144 27.838 129.076 27.5488 128.994 27.222C128.729 26.1746 128.705 25.6093 128.704 20.5281C128.703 15.5247 128.668 14.5849 128.454 13.8179C127.985 12.1369 126.837 11.0985 125.037 10.7271C124.355 10.5864 122.754 10.5738 122.119 10.7042ZM136.819 12.4257C135.637 12.7354 134.746 13.5009 134.161 14.7091L133.911 15.2261V19.534V23.8419L134.075 24.169C134.893 25.7971 136.3 26.6027 138.176 26.5163C140.343 26.4165 141.479 25.1156 141.886 22.2704C142.004 21.4437 142.003 17.3911 141.885 16.565C141.461 13.5934 140.236 12.2967 137.862 12.3061C137.489 12.3076 137.099 12.3522 136.819 12.4257ZM64.9181 14.4458C63.9973 14.7992 63.4529 15.9076 63.2769 17.7876C63.1852 18.7666 63.2422 21.1779 63.3739 21.892C63.6203 23.2286 64.0439 23.9605 64.78 24.3218C65.0862 24.4722 65.2084 24.4957 65.6682 24.4929C66.0991 24.4904 66.261 24.4608 66.5123 24.3388C67.2847 23.964 67.7473 23.1308 67.9567 21.7375C68.0856 20.8793 68.0869 18.0264 67.9587 17.1761C67.848 16.4421 67.6234 15.7458 67.3584 15.3153C66.8257 14.4501 65.8308 14.0955 64.9181 14.4458ZM79.8267 14.3711C78.8885 14.5345 78.3574 15.1673 78.0763 16.4564C77.9712 16.9383 77.9445 17.3521 77.917 18.9268C77.8457 22.995 78.2518 24.1818 79.8141 24.4704C80.5131 24.5996 81.3379 24.3449 81.7943 23.8589C82.2637 23.3589 82.227 23.7318 82.227 19.4652V15.622L82.072 15.3765C81.5836 14.6032 80.7185 14.2158 79.8267 14.3711ZM94.4893 14.3655C93.9452 14.5157 93.535 14.8427 93.2936 15.319C93.0486 15.8023 92.7645 17.068 92.7645 17.6762C92.7645 17.7396 93.2273 17.7562 94.9915 17.7562H97.2185L97.1827 17.2076C97.0491 15.1614 96.5026 14.3738 95.1861 14.3304C94.9064 14.3211 94.5928 14.3369 94.4893 14.3655ZM19.1757 14.5941C18.6968 14.8538 18.7047 15.6555 19.1885 15.9056C19.5644 16.0999 20.0468 15.9699 20.2244 15.6266C20.5819 14.9355 19.8587 14.2236 19.1757 14.5941ZM11.4528 17.6707C11.0933 18.0301 11.3436 18.634 11.8519 18.634C12.0209 18.634 12.1316 18.5881 12.2511 18.4687C12.6106 18.1093 12.3603 17.5054 11.8519 17.5054C11.683 17.5054 11.5723 17.5512 11.4528 17.6707ZM16.2056 17.5913C15.9351 17.7137 15.5715 18.1045 15.4854 18.3654C15.2959 18.9393 15.527 19.6081 16.0331 19.9506C16.2301 20.084 16.3363 20.1073 16.7443 20.1073C17.1523 20.1073 17.2585 20.084 17.4555 19.9506C17.583 19.8644 17.7644 19.6834 17.8587 19.5484C18.0093 19.3329 18.0302 19.2444 18.0302 18.8221C18.0302 18.3997 18.0093 18.3112 17.8587 18.0957C17.5824 17.7002 17.2959 17.5428 16.8139 17.5218C16.5559 17.5105 16.3262 17.5368 16.2056 17.5913ZM25.9418 18.235C25.8223 18.3545 25.7764 18.4651 25.7764 18.634C25.7764 18.8029 25.8223 18.9135 25.9418 19.033C26.0613 19.1524 26.172 19.1982 26.3409 19.1982C26.5099 19.1982 26.6206 19.1524 26.7401 19.033C26.8596 18.9135 26.9054 18.8029 26.9054 18.634C26.9054 18.4651 26.8596 18.3545 26.7401 18.235C26.6206 18.1155 26.5099 18.0697 26.3409 18.0697C26.172 18.0697 26.0613 18.1155 25.9418 18.235ZM22.4282 19.4522C22.0349 19.5507 21.4465 19.8959 21.1265 20.2158C20.9551 20.3871 20.7277 20.7181 20.5899 20.9966C20.3545 21.4728 20.3509 21.4913 20.3509 22.2077C20.3509 22.9241 20.3545 22.9426 20.5899 23.4187C20.8983 24.0424 21.3066 24.4505 21.9305 24.7588C22.4068 24.9941 22.4254 24.9977 23.1421 24.9977C23.8587 24.9977 23.8773 24.9941 24.3536 24.7588C24.9775 24.4505 25.3858 24.0424 25.6942 23.4187C25.9296 22.9426 25.9332 22.9241 25.9332 22.2077C25.9332 21.4913 25.9296 21.4728 25.6942 20.9966C25.388 20.3776 24.9768 19.9645 24.366 19.6628C23.935 19.4498 23.8424 19.4283 23.2832 19.4105C22.9468 19.3999 22.5621 19.4186 22.4282 19.4522ZM123.091 19.556C121.979 19.7069 120.982 20.1436 120.383 20.7425C119.333 21.7919 119.049 23.6858 119.728 25.1074C120.266 26.2351 121.715 26.7656 123.383 26.4454C124.851 26.1638 126.089 25.2489 126.73 23.972L126.886 23.6629V21.5873V19.5117L125.082 19.5211C124.091 19.5263 123.194 19.542 123.091 19.556ZM13.836 22.9232C13.3013 23.1473 12.9256 23.4915 12.6673 23.9939C12.4614 24.3944 12.4478 24.4579 12.4478 25.0227C12.4478 25.544 12.4703 25.6725 12.6153 25.9818C12.8289 26.4374 13.2655 26.8738 13.7213 27.0874C14.0299 27.232 14.1598 27.2548 14.6745 27.2548C15.1892 27.2548 15.319 27.232 15.6276 27.0874C16.0834 26.8738 16.52 26.4374 16.7337 25.9818C16.8783 25.6733 16.9011 25.5435 16.9011 25.029C16.9011 24.5146 16.8783 24.3848 16.7337 24.0763C16.5197 23.6201 16.0829 23.1838 15.6276 22.9717C15.1058 22.7286 14.3489 22.7081 13.836 22.9232ZM20.4849 26.699C20.3654 26.8185 20.3195 26.9291 20.3195 27.098C20.3195 27.2669 20.3654 27.3775 20.4849 27.497C20.6044 27.6165 20.7151 27.6623 20.884 27.6623C21.053 27.6623 21.1637 27.6165 21.2832 27.497C21.4027 27.3775 21.4485 27.2669 21.4485 27.098C21.4485 26.9291 21.4027 26.8185 21.2832 26.699C21.1637 26.5796 21.053 26.5338 20.884 26.5338C20.7151 26.5338 20.6044 26.5796 20.4849 26.699Z" fill="black"/>
</svg>
